<?xml version="1.0" encoding="iso-8859-1"?>
<!-- Generator: Adobe Illustrator 26.0.1, SVG Export Plug-In . SVG Version: 6.00 Build 0)  -->
<svg version="1.1" id="Layer_1" xmlns="http://www.w3.org/2000/svg" xmlns:xlink="http://www.w3.org/1999/xlink" x="0px" y="0px"
	 viewBox="0 0 500 500" style="enable-background:new 0 0 500 500;" xml:space="preserve">
<g id="watermark_1_">
	<g>
		<g id="watermark" style="opacity:0.61;">
			<g>
				<g>
					<g>
						<g>
							<polygon style="fill:#FFFFFF;" points="213.765,461.172 208.204,474.017 205.268,474.017 199.726,461.172 202.938,461.172 
								206.846,470.347 210.81,461.172 							"/>
						</g>
						<g>
							<path style="fill:#FFFFFF;" d="M223.507,469.741h-7.469c0.275,1.23,1.321,1.982,2.826,1.982c1.046,0,1.798-0.312,2.477-0.954
								l1.523,1.651c-0.917,1.046-2.294,1.597-4.074,1.597c-3.413,0-5.634-2.147-5.634-5.083c0-2.954,2.257-5.083,5.267-5.083
								c2.899,0,5.138,1.945,5.138,5.12C223.562,469.191,223.526,469.503,223.507,469.741 M216.002,468.071h4.863
								c-0.202-1.248-1.138-2.055-2.422-2.055C217.139,466.016,216.204,466.805,216.002,468.071"/>
						</g>
						<g>
							<path style="fill:#FFFFFF;" d="M224.735,468.934c0-2.973,2.294-5.083,5.505-5.083c2.074,0,3.707,0.899,4.423,2.514
								l-2.22,1.193c-0.532-0.936-1.321-1.358-2.221-1.358c-1.45,0-2.587,1.009-2.587,2.734c0,1.725,1.138,2.734,2.587,2.734
								c0.899,0,1.688-0.404,2.221-1.358l2.22,1.211c-0.716,1.578-2.349,2.495-4.423,2.495
								C227.029,474.017,224.735,471.907,224.735,468.934"/>
						</g>
						<g>
							<path style="fill:#FFFFFF;" d="M242.828,473.393c-0.587,0.422-1.45,0.624-2.331,0.624c-2.33,0-3.688-1.193-3.688-3.542
								v-4.055h-1.523v-2.202h1.523v-2.404h2.863v2.404h2.459v2.202h-2.459v4.019c0,0.844,0.458,1.303,1.229,1.303
								c0.422,0,0.844-0.128,1.156-0.367L242.828,473.393z"/>
						</g>
					</g>
					<g>
						<path style="fill:#FFFFFF;" d="M262.474,463.997v2.643c-0.238-0.018-0.422-0.037-0.642-0.037
							c-1.578,0-2.624,0.862-2.624,2.753v4.661h-2.863v-9.873h2.734v1.303C259.776,464.493,260.951,463.997,262.474,463.997"/>
					</g>
					<g>
						<path style="fill:#FFFFFF;" d="M263.299,472.53l1.009-2.239c1.083,0.789,2.697,1.339,4.239,1.339
							c1.762,0,2.477-0.587,2.477-1.376c0-2.404-7.469-0.752-7.469-5.524c0-2.184,1.762-4,5.413-4c1.615,0,3.267,0.385,4.459,1.138
							l-0.918,2.257c-1.193-0.679-2.422-1.009-3.56-1.009c-1.761,0-2.44,0.66-2.44,1.468c0,2.367,7.468,0.734,7.468,5.45
							c0,2.147-1.78,3.982-5.45,3.982C266.492,474.017,264.437,473.411,263.299,472.53"/>
					</g>
					<g>
						<path style="fill:#FFFFFF;" d="M285.428,469.741h-7.469c0.275,1.23,1.321,1.982,2.826,1.982c1.046,0,1.798-0.312,2.477-0.954
							l1.523,1.651c-0.918,1.046-2.294,1.597-4.074,1.597c-3.413,0-5.634-2.147-5.634-5.083c0-2.954,2.257-5.083,5.267-5.083
							c2.9,0,5.138,1.945,5.138,5.12C285.484,469.191,285.447,469.503,285.428,469.741 M277.923,468.071h4.863
							c-0.202-1.248-1.138-2.055-2.422-2.055C279.061,466.016,278.125,466.805,277.923,468.071"/>
					</g>
					<g>
						<path style="fill:#FFFFFF;" d="M297.007,469.741h-7.469c0.275,1.23,1.321,1.982,2.826,1.982c1.046,0,1.798-0.312,2.477-0.954
							l1.523,1.651c-0.918,1.046-2.294,1.597-4.074,1.597c-3.413,0-5.634-2.147-5.634-5.083c0-2.954,2.257-5.083,5.267-5.083
							c2.899,0,5.138,1.945,5.138,5.12C297.062,469.191,297.025,469.503,297.007,469.741 M289.501,468.071h4.863
							c-0.202-1.248-1.138-2.055-2.422-2.055C290.639,466.016,289.703,466.805,289.501,468.071"/>
					</g>
					<g>
						<polygon style="fill:#FFFFFF;" points="303.208,470.145 301.831,471.503 301.831,474.017 298.969,474.017 298.969,460.401 
							301.831,460.401 301.831,468.108 306.016,464.144 309.429,464.144 305.318,468.328 309.796,474.017 306.327,474.017 						"/>
					</g>
					<g>
						<path style="fill:#FFFFFF;" d="M256.601,475.359L256.601,475.359l-2.86-2.86c-0.435,0.508-0.953,0.943-1.534,1.284
							c-0.092,0.069-0.186,0.136-0.283,0.199l3.027,3.027c0.456,0.456,1.195,0.456,1.65,0
							C257.057,476.554,257.057,475.815,256.601,475.359"/>
					</g>
					<g>
						<path style="fill:#FFFFFF;" d="M249.984,463.244c0.221-0.173,0.495-0.281,0.797-0.281c0.042,0,0.083,0.002,0.124,0.006
							c-0.214-0.156-0.478-0.249-0.764-0.249c-0.395,0-0.744,0.18-0.981,0.458c-0.051,0-0.1,0.006-0.151,0.008
							c0.039-0.077,0.064-0.162,0.064-0.255c0-0.234-0.143-0.434-0.346-0.519c0.087,0.126,0.138,0.279,0.138,0.445
							c0,0.122-0.031,0.237-0.081,0.341c-2.811,0.201-5.03,2.539-5.03,5.4c0,2.993,2.426,5.42,5.42,5.42
							c2.993,0,5.42-2.426,5.42-5.42C254.595,465.879,252.593,463.635,249.984,463.244 M247.983,464.656
							c0.435,0,0.844,0.112,1.199,0.309c0.374-0.245,0.82-0.387,1.299-0.387c0.711,0,1.348,0.312,1.784,0.806
							c-0.435-0.379-1.004-0.61-1.627-0.61c-0.449,0-0.87,0.12-1.234,0.329c-0.079,0.046-0.156,0.096-0.229,0.15
							c-0.065-0.048-0.133-0.093-0.204-0.134c-0.369-0.219-0.8-0.344-1.26-0.344c-0.3,0-0.588,0.054-0.854,0.152
							C247.196,464.754,247.578,464.656,247.983,464.656 M251.772,469.098c0.115,0.305,0.181,0.634,0.181,0.979
							c0,1.534-1.244,2.777-2.778,2.777c-1.534,0-2.777-1.243-2.777-2.777c0-0.345,0.066-0.674,0.181-0.979
							c-0.62-0.382-1.035-1.064-1.035-1.846c0-1.197,0.971-2.168,2.168-2.168c0.565,0,1.078,0.218,1.463,0.572
							c0.386-0.354,0.899-0.572,1.464-0.572c1.197,0,2.168,0.971,2.168,2.168C252.807,468.034,252.392,468.716,251.772,469.098"/>
					</g>
					<g>
						<path style="fill:#FFFFFF;" d="M251.666,467.061c0,0.497-0.404,0.901-0.901,0.901c-0.497,0-0.901-0.404-0.901-0.901
							s0.404-0.901,0.901-0.901c0.101,0,0.197,0.017,0.287,0.047c-0.03,0.062-0.045,0.132-0.045,0.204
							c0,0.273,0.221,0.494,0.494,0.494c0.05,0,0.099-0.008,0.146-0.022C251.66,466.941,251.666,467,251.666,467.061"/>
					</g>
					<g>
						<path style="fill:#FFFFFF;" d="M248.255,467.061c0,0.376-0.305,0.681-0.681,0.681c-0.376,0-0.681-0.305-0.681-0.681
							s0.305-0.681,0.681-0.681c0.076,0,0.149,0.013,0.217,0.035c-0.023,0.047-0.034,0.1-0.034,0.155
							c0,0.206,0.167,0.374,0.374,0.374c0.038,0,0.075-0.006,0.11-0.017C248.25,466.97,248.255,467.015,248.255,467.061"/>
					</g>
					<g>
						<g>
							<g>
								<rect x="242.908" y="467.83" style="fill:#FFFFFF;" width="0.616" height="0.616"/>
							</g>
							<g>
								<rect x="254.827" y="467.83" style="fill:#FFFFFF;" width="0.616" height="0.616"/>
							</g>
							<g>
								<path style="fill:#FFFFFF;" d="M255.205,468.082h-0.14c0-3.248-2.642-5.89-5.89-5.89c-3.248,0-5.89,2.642-5.89,5.89h-0.14
									c0-1.611,0.627-3.125,1.766-4.264c1.139-1.139,2.653-1.766,4.264-1.766c1.611,0,3.125,0.627,4.264,1.766
									C254.578,464.957,255.205,466.471,255.205,468.082"/>
							</g>
						</g>
						<g>
							<rect x="248.868" y="461.814" style="fill:#FFFFFF;" width="0.616" height="0.616"/>
						</g>
						<g>
							<rect x="244.95" y="462.052" style="fill:#FFFFFF;" width="8.45" height="0.14"/>
						</g>
						<g>
							<path style="fill:#FFFFFF;" d="M245.174,462.15c0,0.108-0.088,0.196-0.196,0.196c-0.108,0-0.196-0.088-0.196-0.196
								c0-0.108,0.088-0.196,0.196-0.196C245.086,461.954,245.174,462.042,245.174,462.15"/>
						</g>
						<g>
							<path style="fill:#FFFFFF;" d="M253.596,462.15c0,0.108-0.088,0.196-0.196,0.196c-0.108,0-0.196-0.088-0.196-0.196
								c0-0.108,0.088-0.196,0.196-0.196C253.509,461.954,253.596,462.042,253.596,462.15"/>
						</g>
					</g>
				</g>
				<g>
					<path style="fill:#FFFFFF;" d="M314.356,473.409c0,1.559-2.364,1.559-2.364,0C311.993,471.851,314.356,471.851,314.356,473.409
						z"/>
				</g>
				<g>
					<g>
						<g>
							<path style="fill:#FFFFFF;" d="M161.739,466.549l1.772,6.088l1.855-6.088h2.215l-2.823,8.14h-2.33l-0.837-2.396l-0.722-2.708
								l-0.722,2.708l-0.837,2.396h-2.33l-2.839-8.14h2.231l1.855,6.088l1.756-6.088H161.739z"/>
						</g>
						<g>
							<path style="fill:#FFFFFF;" d="M176.713,466.549l1.772,6.088l1.855-6.088h2.215l-2.823,8.14h-2.33l-0.837-2.396l-0.722-2.708
								l-0.722,2.708l-0.837,2.396h-2.33l-2.839-8.14h2.231l1.855,6.088l1.756-6.088H176.713z"/>
						</g>
						<g>
							<path style="fill:#FFFFFF;" d="M191.687,466.549l1.772,6.088l1.855-6.088h2.215l-2.823,8.14h-2.33l-0.837-2.396l-0.722-2.708
								l-0.722,2.708l-0.837,2.396h-2.33l-2.839-8.14h2.231l1.855,6.088l1.756-6.088H191.687z"/>
						</g>
					</g>
					<g>
						<path style="fill:#FFFFFF;" d="M200.908,473.52c0,1.559-2.364,1.559-2.364,0C198.545,471.962,200.908,471.962,200.908,473.52z
							"/>
					</g>
					<g>
						<path style="fill:#FFFFFF;" d="M322.71,473.409c-0.935,0.919-1.919,1.28-3.117,1.28c-2.346,0-4.3-1.411-4.3-4.282
							s1.953-4.284,4.3-4.284c1.149,0,2.035,0.329,2.921,1.199l-1.264,1.329c-0.476-0.428-1.066-0.64-1.623-0.64
							c-1.346,0-2.33,0.985-2.33,2.396c0,1.542,1.05,2.362,2.297,2.362c0.64,0,1.28-0.18,1.772-0.672L322.71,473.409z"/>
					</g>
					<g>
						<path style="fill:#FFFFFF;" d="M331.805,470.472c0,2.33-1.591,4.217-4.217,4.217c-2.626,0-4.201-1.887-4.201-4.217
							c0-2.314,1.609-4.217,4.185-4.217C330.149,466.255,331.805,468.158,331.805,470.472z M325.389,470.472
							c0,1.231,0.739,2.38,2.199,2.38c1.46,0,2.199-1.149,2.199-2.38c0-1.215-0.854-2.396-2.199-2.396
							C326.144,468.077,325.389,469.258,325.389,470.472z"/>
					</g>
					<g>
						<path style="fill:#FFFFFF;" d="M338.572,474.689v-4.332c0-1.068-0.559-2.035-1.658-2.035c-1.082,0-1.722,0.967-1.722,2.035
							v4.332h-2.003v-8.107h1.855l0.148,0.985c0.426-0.82,1.362-1.116,2.133-1.116c0.969,0,1.937,0.394,2.396,1.51
							c0.723-1.149,1.658-1.478,2.708-1.478c2.297,0,3.43,1.412,3.43,3.84v4.365h-2.003v-4.365c0-1.066-0.442-1.97-1.526-1.97
							c-1.082,0-1.756,0.935-1.756,2.003v4.332H338.572z"/>
					</g>
				</g>
			</g>
		</g>
		<g style="opacity:0.61;">
			<g>
				<g>
					<path style="fill:#FFFFFF;" d="M345.988,431.299c-0.006-1.224-0.959-2.121-2.189-2.14c-0.924-0.014-0.832,0.12-0.834-0.867
						c-0.003-1.097-0.007-2.194,0.003-3.292c0.003-0.379-0.112-0.691-0.362-0.976c-2.342-2.668-4.678-5.342-7.019-8.011
						c-0.12-0.137-0.275-0.244-0.414-0.366c-6.214,0-12.427,0-18.641,0c-0.794,0.293-1.14,0.868-1.138,1.709
						c0.01,3.748,0.004,7.496,0.004,11.243c0,0.556-0.003,0.589-0.55,0.551c-1.497-0.102-2.516,0.986-2.497,2.492
						c0.044,3.476,0.013,6.953,0.014,10.429c0.001,1.58,0.867,2.443,2.45,2.449c0.582,0.002,0.582,0.002,0.582,0.6
						c0,2.219-0.001,4.438,0.001,6.657c0.001,1.192,0.58,1.771,1.768,1.771c8.013,0.001,16.027,0.001,24.04,0
						c1.168,0,1.755-0.583,1.757-1.745c0.002-2.256,0-4.512,0.001-6.768c0-0.512,0.002-0.511,0.52-0.515
						c0.271-0.002,0.541,0.008,0.809-0.058c0.996-0.246,1.69-1.044,1.694-2.069C346.003,438.696,346.005,434.997,345.988,431.299z
						 M317.537,417.162c5.337,0,10.674,0,16.01,0c0.548,0,0.554,0.007,0.554,0.561c0.001,2.243-0.001,4.486,0.001,6.73
						c0.001,0.811,0.249,1.059,1.06,1.059c1.91,0.001,3.821,0,5.731,0.001c0.458,0,0.479,0.021,0.481,0.483
						c0.003,0.887,0.002,1.775,0,2.662c-0.001,0.477-0.024,0.498-0.504,0.499c-3.895,0.001-7.79,0-11.684,0
						c-3.882,0-7.765,0-11.647,0c-0.55,0-0.552-0.001-0.552-0.561c-0.001-3.624-0.001-7.247,0-10.871
						C316.987,417.166,316.991,417.162,317.537,417.162z M340.822,451.579c-3.883,0.001-7.766,0-11.65,0c-3.871,0-7.742,0-11.613,0
						c-0.572,0-0.574-0.002-0.574-0.579c-0.001-1.997-0.001-3.994,0.001-5.991c0-0.464,0.023-0.486,0.478-0.487
						c7.803-0.001,15.607-0.001,23.41,0c0.478,0,0.499,0.02,0.499,0.503c0.002,1.997,0.001,3.994,0,5.991
						C341.375,451.574,341.37,451.579,340.822,451.579z"/>
				</g>
				<g>
					<g>
						<rect x="327.418" y="417.053" style="fill:#FFFFFF;" width="1.757" height="1.054"/>
					</g>
					<g>
						<rect x="325.662" y="418.107" style="fill:#FFFFFF;" width="1.757" height="1.054"/>
					</g>
					<g>
						<rect x="327.418" y="419.161" style="fill:#FFFFFF;" width="1.757" height="1.054"/>
					</g>
					<g>
						<rect x="325.662" y="420.215" style="fill:#FFFFFF;" width="1.757" height="1.054"/>
					</g>
					<g>
						<rect x="327.418" y="421.269" style="fill:#FFFFFF;" width="1.757" height="1.054"/>
					</g>
					<g>
						<rect x="325.662" y="422.323" style="fill:#FFFFFF;" width="1.757" height="1.054"/>
					</g>
					<g>
						<rect x="327.418" y="423.378" style="fill:#FFFFFF;" width="1.757" height="1.054"/>
					</g>
					<g>
						<rect x="325.662" y="424.432" style="fill:#FFFFFF;" width="1.757" height="1.054"/>
					</g>
					<g>
						<rect x="327.418" y="425.486" style="fill:#FFFFFF;" width="1.757" height="1.054"/>
					</g>
					<g>
						<rect x="325.662" y="426.54" style="fill:#FFFFFF;" width="1.757" height="1.054"/>
					</g>
					<g>
						<rect x="327.418" y="427.594" style="fill:#FFFFFF;" width="1.757" height="1.054"/>
					</g>
					<g>
						<rect x="325.662" y="428.648" style="fill:#FFFFFF;" width="1.757" height="1.054"/>
					</g>
				</g>
			</g>
			<g>
				<path style="fill:#FFFFFF;" d="M187.637,431.299c-0.006-1.224-0.959-2.121-2.189-2.14c-0.924-0.014-0.832,0.12-0.834-0.867
					c-0.003-1.097-0.007-2.194,0.003-3.292c0.003-0.379-0.112-0.691-0.362-0.976c-2.342-2.668-4.678-5.342-7.019-8.011
					c-0.12-0.137-0.275-0.244-0.414-0.366c-6.214,0-12.427,0-18.641,0c-0.794,0.293-1.14,0.868-1.138,1.709
					c0.01,3.748,0.004,7.496,0.004,11.243c0,0.556-0.003,0.589-0.55,0.551c-1.497-0.102-2.516,0.986-2.497,2.492
					c0.044,3.476,0.013,6.953,0.014,10.429c0.001,1.58,0.867,2.443,2.45,2.449c0.582,0.002,0.582,0.002,0.582,0.6
					c0,2.219-0.001,4.438,0.001,6.657c0.001,1.192,0.58,1.771,1.768,1.771c8.013,0.001,16.027,0.001,24.04,0
					c1.168,0,1.755-0.583,1.757-1.745c0.002-2.256,0-4.512,0.001-6.768c0-0.512,0.002-0.511,0.52-0.515
					c0.271-0.002,0.541,0.008,0.809-0.058c0.996-0.246,1.69-1.044,1.694-2.069C187.652,438.696,187.655,434.997,187.637,431.299z
					 M159.187,417.162c5.337,0,10.674,0,16.01,0c0.548,0,0.554,0.007,0.554,0.561c0.001,2.243-0.001,4.486,0.001,6.73
					c0.001,0.811,0.249,1.059,1.06,1.059c1.91,0.001,3.821,0,5.731,0.001c0.458,0,0.479,0.021,0.481,0.483
					c0.003,0.887,0.002,1.775,0,2.662c-0.001,0.477-0.024,0.498-0.504,0.499c-3.895,0.001-7.79,0-11.684,0
					c-3.882,0-7.765,0-11.647,0c-0.55,0-0.552-0.001-0.552-0.561c-0.001-3.624-0.001-7.247,0-10.871
					C158.636,417.166,158.64,417.162,159.187,417.162z M182.472,451.579c-3.883,0.001-7.766,0-11.65,0c-3.871,0-7.742,0-11.613,0
					c-0.572,0-0.574-0.002-0.574-0.579c-0.001-1.997-0.001-3.994,0.001-5.991c0-0.464,0.023-0.486,0.478-0.487
					c7.803-0.001,15.607-0.001,23.41,0c0.478,0,0.499,0.02,0.499,0.503c0.002,1.997,0.001,3.994,0,5.991
					C183.024,451.574,183.019,451.579,182.472,451.579z"/>
			</g>
			<g>
				<path style="fill:#FFFFFF;" d="M159.779,440.669v-7.897h2.779c0.375,0,0.726,0.061,1.053,0.182
					c0.327,0.121,0.612,0.292,0.855,0.513c0.242,0.221,0.434,0.483,0.573,0.789c0.14,0.305,0.21,0.642,0.21,1.009
					c0,0.375-0.07,0.715-0.21,1.02c-0.14,0.305-0.331,0.568-0.573,0.789c-0.243,0.221-0.528,0.392-0.855,0.513
					c-0.327,0.121-0.678,0.182-1.053,0.182h-1.29v2.901H159.779z M162.58,436.356c0.39,0,0.684-0.111,0.882-0.331
					c0.199-0.22,0.298-0.474,0.298-0.761c0-0.14-0.024-0.276-0.072-0.408c-0.048-0.132-0.121-0.248-0.221-0.347
					c-0.099-0.099-0.223-0.178-0.37-0.237c-0.147-0.059-0.32-0.089-0.518-0.089h-1.312v2.173H162.58z"/>
				<path style="fill:#FFFFFF;" d="M166.308,432.771h1.731l3.177,5.294h0.088l-0.088-1.522v-3.772h1.478v7.897h-1.566l-3.353-5.592
					h-0.088l0.088,1.522v4.07h-1.467V432.771z"/>
				<path style="fill:#FFFFFF;" d="M177.922,436.334h3.872c0.022,0.089,0.04,0.195,0.055,0.32c0.014,0.125,0.022,0.25,0.022,0.375
					c0,0.507-0.077,0.985-0.231,1.434c-0.154,0.449-0.397,0.849-0.728,1.202c-0.353,0.375-0.776,0.666-1.268,0.871
					c-0.493,0.206-1.055,0.309-1.688,0.309c-0.574,0-1.114-0.103-1.622-0.309c-0.507-0.206-0.948-0.492-1.323-0.86
					c-0.375-0.367-0.673-0.803-0.894-1.307c-0.221-0.504-0.331-1.053-0.331-1.649c0-0.595,0.11-1.145,0.331-1.649
					c0.221-0.504,0.518-0.939,0.894-1.307c0.375-0.367,0.816-0.654,1.323-0.86c0.507-0.206,1.048-0.309,1.622-0.309
					c0.64,0,1.211,0.11,1.715,0.331c0.504,0.221,0.935,0.526,1.296,0.915l-1.025,1.004c-0.258-0.272-0.544-0.48-0.861-0.623
					c-0.316-0.143-0.695-0.215-1.136-0.215c-0.361,0-0.703,0.065-1.026,0.193c-0.324,0.129-0.607,0.311-0.85,0.546
					c-0.242,0.235-0.436,0.52-0.579,0.855c-0.143,0.335-0.215,0.708-0.215,1.119c0,0.412,0.072,0.785,0.215,1.12
					c0.143,0.335,0.338,0.62,0.584,0.855c0.246,0.235,0.531,0.418,0.855,0.546c0.323,0.129,0.669,0.193,1.037,0.193
					c0.419,0,0.773-0.061,1.064-0.182c0.29-0.121,0.538-0.278,0.744-0.469c0.148-0.132,0.275-0.3,0.381-0.502
					c0.106-0.202,0.189-0.428,0.248-0.678h-2.482V436.334z"/>
			</g>
			<g>
				<path style="fill:#FFFFFF;" d="M224.019,431.299c-0.006-1.224-0.959-2.121-2.189-2.14c-0.924-0.014-0.832,0.12-0.834-0.867
					c-0.003-1.097-0.007-2.194,0.003-3.292c0.003-0.379-0.112-0.691-0.362-0.976c-2.342-2.668-4.678-5.342-7.019-8.011
					c-0.12-0.137-0.275-0.244-0.414-0.366c-6.214,0-12.427,0-18.641,0c-0.794,0.293-1.14,0.868-1.138,1.709
					c0.01,3.748,0.004,7.496,0.004,11.243c0,0.556-0.003,0.589-0.55,0.551c-1.497-0.102-2.516,0.986-2.497,2.492
					c0.044,3.476,0.013,6.953,0.014,10.429c0.001,1.58,0.867,2.443,2.45,2.449c0.582,0.002,0.582,0.002,0.582,0.6
					c0,2.219-0.001,4.438,0.001,6.657c0.001,1.192,0.58,1.771,1.768,1.771c8.013,0.001,16.027,0.001,24.04,0
					c1.168,0,1.755-0.583,1.757-1.745c0.002-2.256,0-4.512,0.001-6.768c0-0.512,0.002-0.511,0.52-0.515
					c0.271-0.002,0.541,0.008,0.809-0.058c0.997-0.246,1.69-1.044,1.694-2.069C224.034,438.696,224.036,434.997,224.019,431.299z
					 M195.568,417.162c5.337,0,10.674,0,16.01,0c0.548,0,0.554,0.007,0.554,0.561c0.001,2.243-0.001,4.486,0.001,6.73
					c0.001,0.811,0.249,1.059,1.06,1.059c1.91,0.001,3.821,0,5.731,0.001c0.458,0,0.479,0.021,0.481,0.483
					c0.003,0.887,0.002,1.775,0,2.662c-0.001,0.477-0.024,0.498-0.504,0.499c-3.895,0.001-7.79,0-11.684,0
					c-3.882,0-7.765,0-11.647,0c-0.55,0-0.552-0.001-0.552-0.561c-0.001-3.624-0.001-7.247,0-10.871
					C195.018,417.166,195.022,417.162,195.568,417.162z M218.854,451.579c-3.883,0.001-7.766,0-11.65,0c-3.871,0-7.742,0-11.613,0
					c-0.572,0-0.574-0.002-0.574-0.579c-0.001-1.997-0.001-3.994,0.001-5.991c0-0.464,0.023-0.486,0.478-0.487
					c7.803-0.001,15.607-0.001,23.41,0c0.478,0,0.499,0.02,0.499,0.503c0.002,1.997,0.001,3.994,0,5.991
					C219.406,451.574,219.401,451.579,218.854,451.579z"/>
			</g>
			<g>
				<path style="fill:#FFFFFF;" d="M205.111,432.771h1.699l2.967,7.897h-1.644l-0.651-1.886h-3.044l-0.651,1.886h-1.643
					L205.111,432.771z M206.997,437.415l-0.706-1.974l-0.287-0.96h-0.088l-0.287,0.96l-0.706,1.974H206.997z"/>
				<path style="fill:#FFFFFF;" d="M211.331,434.536c-0.125,0-0.245-0.024-0.359-0.072c-0.114-0.048-0.213-0.114-0.298-0.199
					c-0.084-0.084-0.151-0.182-0.198-0.292c-0.048-0.11-0.072-0.232-0.072-0.364s0.024-0.254,0.072-0.364
					c0.048-0.11,0.114-0.208,0.198-0.292c0.084-0.084,0.184-0.151,0.298-0.198c0.114-0.048,0.233-0.072,0.359-0.072
					c0.257,0,0.478,0.09,0.662,0.27c0.184,0.181,0.276,0.399,0.276,0.656s-0.092,0.476-0.276,0.656
					C211.809,434.446,211.589,434.536,211.331,434.536z M210.615,440.669v-5.404h1.445v5.404H210.615z"/>
			</g>
			<g>
				<path style="fill:#FFFFFF;" d="M261.044,431.299c-0.006-1.224-0.959-2.121-2.189-2.14c-0.924-0.014-0.832,0.12-0.834-0.867
					c-0.003-1.097-0.007-2.194,0.003-3.292c0.003-0.379-0.112-0.691-0.362-0.976c-2.342-2.668-4.678-5.342-7.019-8.011
					c-0.12-0.137-0.275-0.244-0.414-0.366c-6.214,0-12.427,0-18.641,0c-0.794,0.293-1.14,0.868-1.138,1.709
					c0.01,3.748,0.004,7.496,0.004,11.243c0,0.556-0.003,0.589-0.55,0.551c-1.497-0.102-2.516,0.986-2.497,2.492
					c0.044,3.476,0.013,6.953,0.014,10.429c0.001,1.58,0.867,2.443,2.45,2.449c0.582,0.002,0.582,0.002,0.582,0.6
					c0,2.219-0.001,4.438,0.001,6.657c0.001,1.192,0.58,1.771,1.768,1.771c8.013,0.001,16.027,0.001,24.04,0
					c1.168,0,1.755-0.583,1.757-1.745c0.002-2.256,0-4.512,0.001-6.768c0-0.512,0.002-0.511,0.52-0.515
					c0.271-0.002,0.541,0.008,0.809-0.058c0.996-0.246,1.69-1.044,1.694-2.069C261.059,438.696,261.061,434.997,261.044,431.299z
					 M232.593,417.162c5.337,0,10.674,0,16.01,0c0.548,0,0.554,0.007,0.554,0.561c0.001,2.243-0.001,4.486,0.001,6.73
					c0.001,0.811,0.249,1.059,1.06,1.059c1.91,0.001,3.821,0,5.731,0.001c0.458,0,0.479,0.021,0.481,0.483
					c0.003,0.887,0.002,1.775,0,2.662c-0.001,0.477-0.024,0.498-0.504,0.499c-3.895,0.001-7.79,0-11.684,0
					c-3.882,0-7.765,0-11.647,0c-0.55,0-0.552-0.001-0.552-0.561c-0.001-3.624-0.001-7.247,0-10.871
					C232.042,417.166,232.047,417.162,232.593,417.162z M255.878,451.579c-3.883,0.001-7.766,0-11.65,0c-3.871,0-7.742,0-11.613,0
					c-0.572,0-0.574-0.002-0.574-0.579c-0.001-1.997-0.001-3.994,0.001-5.991c0-0.464,0.023-0.486,0.478-0.487
					c7.803-0.001,15.607-0.001,23.41,0c0.478,0,0.499,0.02,0.499,0.503c0.002,1.997,0.001,3.994,0,5.991
					C256.431,451.574,256.426,451.579,255.878,451.579z"/>
			</g>
			<g>
				<path style="fill:#FFFFFF;" d="M236.361,440.845c-0.338,0-0.662-0.048-0.971-0.143c-0.309-0.095-0.592-0.239-0.849-0.43
					c-0.257-0.191-0.481-0.425-0.673-0.7c-0.191-0.276-0.342-0.597-0.452-0.965l1.401-0.551c0.103,0.397,0.283,0.726,0.54,0.987
					c0.257,0.261,0.596,0.392,1.015,0.392c0.154,0,0.303-0.02,0.447-0.061c0.143-0.04,0.272-0.099,0.386-0.176
					s0.204-0.175,0.27-0.292c0.066-0.118,0.099-0.254,0.099-0.408c0-0.147-0.026-0.279-0.077-0.397
					c-0.051-0.117-0.138-0.227-0.259-0.331c-0.121-0.103-0.28-0.202-0.475-0.298c-0.195-0.095-0.435-0.195-0.722-0.298l-0.485-0.176
					c-0.213-0.073-0.429-0.173-0.645-0.298c-0.217-0.125-0.413-0.276-0.59-0.452c-0.177-0.176-0.322-0.384-0.436-0.623
					c-0.114-0.239-0.171-0.509-0.171-0.81c0-0.309,0.06-0.597,0.182-0.866c0.121-0.268,0.294-0.503,0.518-0.706
					c0.224-0.202,0.492-0.36,0.805-0.474s0.66-0.171,1.042-0.171c0.397,0,0.74,0.053,1.031,0.16
					c0.291,0.107,0.537,0.243,0.739,0.408c0.202,0.165,0.366,0.348,0.491,0.546c0.125,0.199,0.217,0.386,0.276,0.563l-1.312,0.551
					c-0.074-0.221-0.208-0.419-0.402-0.596c-0.195-0.176-0.462-0.265-0.8-0.265c-0.324,0-0.592,0.075-0.805,0.226
					c-0.213,0.151-0.32,0.348-0.32,0.59c0,0.235,0.103,0.436,0.309,0.601c0.206,0.165,0.533,0.325,0.982,0.48l0.497,0.165
					c0.316,0.111,0.605,0.237,0.866,0.381c0.261,0.143,0.485,0.314,0.673,0.513c0.187,0.199,0.331,0.425,0.43,0.678
					c0.1,0.254,0.149,0.546,0.149,0.877c0,0.412-0.083,0.767-0.248,1.064c-0.165,0.298-0.377,0.542-0.634,0.734
					c-0.258,0.191-0.548,0.335-0.872,0.43C236.986,440.797,236.67,440.845,236.361,440.845z"/>
				<path style="fill:#FFFFFF;" d="M239.516,432.771h1.61l1.633,4.754l0.287,1.015h0.088l0.309-1.015l1.699-4.754h1.61l-2.879,7.897
					h-1.566L239.516,432.771z"/>
				<path style="fill:#FFFFFF;" d="M251.097,436.334h3.871c0.022,0.089,0.04,0.195,0.055,0.32c0.015,0.125,0.023,0.25,0.023,0.375
					c0,0.507-0.078,0.985-0.232,1.434c-0.154,0.449-0.397,0.849-0.728,1.202c-0.353,0.375-0.775,0.666-1.268,0.871
					c-0.493,0.206-1.055,0.309-1.688,0.309c-0.574,0-1.114-0.103-1.621-0.309c-0.507-0.206-0.949-0.492-1.324-0.86
					c-0.375-0.367-0.673-0.803-0.894-1.307c-0.22-0.504-0.331-1.053-0.331-1.649c0-0.595,0.11-1.145,0.331-1.649
					c0.221-0.504,0.518-0.939,0.894-1.307c0.375-0.367,0.816-0.654,1.324-0.86c0.507-0.206,1.047-0.309,1.621-0.309
					c0.64,0,1.211,0.11,1.715,0.331c0.504,0.221,0.936,0.526,1.296,0.915l-1.026,1.004c-0.257-0.272-0.544-0.48-0.861-0.623
					c-0.316-0.143-0.694-0.215-1.136-0.215c-0.36,0-0.702,0.065-1.026,0.193c-0.323,0.129-0.607,0.311-0.849,0.546
					c-0.243,0.235-0.436,0.52-0.579,0.855c-0.143,0.335-0.215,0.708-0.215,1.119c0,0.412,0.072,0.785,0.215,1.12
					c0.143,0.335,0.338,0.62,0.585,0.855c0.246,0.235,0.531,0.418,0.854,0.546c0.324,0.129,0.669,0.193,1.037,0.193
					c0.419,0,0.774-0.061,1.064-0.182c0.29-0.121,0.539-0.278,0.745-0.469c0.147-0.132,0.274-0.3,0.38-0.502
					c0.107-0.202,0.189-0.428,0.248-0.678h-2.482V436.334z"/>
			</g>
			<g>
				<path style="fill:#FFFFFF;" d="M297.3,431.299c-0.006-1.224-0.959-2.121-2.189-2.14c-0.924-0.014-0.832,0.12-0.834-0.867
					c-0.003-1.097-0.007-2.194,0.003-3.292c0.003-0.379-0.112-0.691-0.362-0.976c-2.342-2.668-4.678-5.342-7.019-8.011
					c-0.12-0.137-0.275-0.244-0.414-0.366c-6.214,0-12.427,0-18.641,0c-0.794,0.293-1.14,0.868-1.138,1.709
					c0.01,3.748,0.004,7.496,0.004,11.243c0,0.556-0.003,0.589-0.55,0.551c-1.497-0.102-2.516,0.986-2.497,2.492
					c0.044,3.476,0.013,6.953,0.014,10.429c0.001,1.58,0.867,2.443,2.45,2.449c0.582,0.002,0.582,0.002,0.582,0.6
					c0,2.219-0.001,4.438,0.001,6.657c0.001,1.192,0.58,1.771,1.768,1.771c8.013,0.001,16.027,0.001,24.04,0
					c1.168,0,1.755-0.583,1.757-1.745c0.002-2.256,0-4.512,0.001-6.768c0-0.512,0.002-0.511,0.52-0.515
					c0.271-0.002,0.541,0.008,0.809-0.058c0.996-0.246,1.69-1.044,1.694-2.069C297.315,438.696,297.318,434.997,297.3,431.299z
					 M268.85,417.162c5.337,0,10.674,0,16.01,0c0.548,0,0.554,0.007,0.554,0.561c0.001,2.243-0.001,4.486,0.001,6.73
					c0.001,0.811,0.249,1.059,1.06,1.059c1.91,0.001,3.821,0,5.731,0.001c0.458,0,0.479,0.021,0.481,0.483
					c0.003,0.887,0.002,1.775,0,2.662c-0.001,0.477-0.024,0.498-0.504,0.499c-3.895,0.001-7.79,0-11.684,0
					c-3.882,0-7.765,0-11.647,0c-0.55,0-0.552-0.001-0.552-0.561c-0.001-3.624-0.001-7.247,0-10.871
					C268.299,417.166,268.303,417.162,268.85,417.162z M292.135,451.579c-3.883,0.001-7.766,0-11.65,0c-3.871,0-7.742,0-11.613,0
					c-0.572,0-0.574-0.002-0.574-0.579c-0.001-1.997-0.001-3.994,0.001-5.991c0-0.464,0.023-0.486,0.478-0.487
					c7.803-0.001,15.607-0.001,23.41,0c0.478,0,0.499,0.02,0.499,0.503c0.001,1.997,0.001,3.994,0,5.991
					C292.687,451.574,292.682,451.579,292.135,451.579z"/>
			</g>
			<g>
				<path style="fill:#FFFFFF;" d="M272.966,434.183v1.831h3.165v1.412h-3.165v1.831h3.518v1.412h-5.007v-7.897h5.007v1.412H272.966
					z"/>
				<path style="fill:#FFFFFF;" d="M277.852,440.669v-7.897h2.779c0.375,0,0.726,0.061,1.053,0.182
					c0.327,0.121,0.612,0.292,0.855,0.513c0.243,0.221,0.434,0.483,0.574,0.789c0.14,0.305,0.209,0.642,0.209,1.009
					c0,0.375-0.07,0.715-0.209,1.02c-0.14,0.305-0.331,0.568-0.574,0.789c-0.243,0.221-0.528,0.392-0.855,0.513
					c-0.327,0.121-0.678,0.182-1.053,0.182h-1.29v2.901H277.852z M280.653,436.356c0.389,0,0.684-0.111,0.882-0.331
					c0.199-0.22,0.298-0.474,0.298-0.761c0-0.14-0.024-0.276-0.072-0.408c-0.048-0.132-0.121-0.248-0.221-0.347
					c-0.099-0.099-0.222-0.178-0.37-0.237c-0.147-0.059-0.32-0.089-0.518-0.089h-1.312v2.173H280.653z"/>
				<path style="fill:#FFFFFF;" d="M286.797,440.845c-0.338,0-0.662-0.048-0.971-0.143c-0.309-0.095-0.592-0.239-0.849-0.43
					c-0.257-0.191-0.482-0.425-0.673-0.7c-0.191-0.276-0.342-0.597-0.452-0.965l1.401-0.551c0.103,0.397,0.283,0.726,0.541,0.987
					c0.257,0.261,0.595,0.392,1.015,0.392c0.154,0,0.303-0.02,0.447-0.061c0.143-0.04,0.272-0.099,0.386-0.176
					c0.114-0.077,0.204-0.175,0.27-0.292c0.066-0.118,0.1-0.254,0.1-0.408c0-0.147-0.026-0.279-0.077-0.397
					c-0.051-0.117-0.138-0.227-0.259-0.331c-0.121-0.103-0.279-0.202-0.474-0.298c-0.195-0.095-0.436-0.195-0.723-0.298
					l-0.485-0.176c-0.213-0.073-0.428-0.173-0.645-0.298c-0.217-0.125-0.414-0.276-0.59-0.452c-0.176-0.176-0.322-0.384-0.436-0.623
					c-0.114-0.239-0.171-0.509-0.171-0.81c0-0.309,0.061-0.597,0.182-0.866c0.121-0.268,0.294-0.503,0.518-0.706
					c0.224-0.202,0.493-0.36,0.805-0.474c0.312-0.114,0.66-0.171,1.042-0.171c0.397,0,0.741,0.053,1.031,0.16
					c0.29,0.107,0.537,0.243,0.739,0.408c0.202,0.165,0.365,0.348,0.491,0.546c0.125,0.199,0.217,0.386,0.276,0.563l-1.312,0.551
					c-0.074-0.221-0.208-0.419-0.403-0.596c-0.195-0.176-0.462-0.265-0.799-0.265c-0.324,0-0.592,0.075-0.805,0.226
					c-0.213,0.151-0.32,0.348-0.32,0.59c0,0.235,0.103,0.436,0.309,0.601c0.206,0.165,0.533,0.325,0.982,0.48l0.496,0.165
					c0.316,0.111,0.605,0.237,0.866,0.381c0.261,0.143,0.485,0.314,0.673,0.513c0.187,0.199,0.331,0.425,0.43,0.678
					c0.099,0.254,0.149,0.546,0.149,0.877c0,0.412-0.083,0.767-0.248,1.064c-0.165,0.298-0.377,0.542-0.634,0.734
					c-0.258,0.191-0.548,0.335-0.872,0.43C287.422,440.797,287.105,440.845,286.797,440.845z"/>
			</g>
			<g>
				<path style="fill:#FFFFFF;" d="M321.394,439.168l4.004-4.985h-3.827v-1.412h5.559v1.5l-3.96,4.985h4.004v1.412h-5.779V439.168z"
					/>
				<path style="fill:#FFFFFF;" d="M328.409,432.771h1.489v7.897h-1.489V432.771z"/>
				<path style="fill:#FFFFFF;" d="M331.486,440.669v-7.897h2.779c0.375,0,0.726,0.061,1.053,0.182
					c0.327,0.121,0.612,0.292,0.855,0.513s0.434,0.483,0.574,0.789c0.14,0.305,0.209,0.642,0.209,1.009
					c0,0.375-0.07,0.715-0.209,1.02c-0.14,0.305-0.331,0.568-0.574,0.789c-0.243,0.221-0.528,0.392-0.855,0.513
					c-0.327,0.121-0.678,0.182-1.053,0.182h-1.29v2.901H331.486z M334.288,436.356c0.389,0,0.684-0.111,0.882-0.331
					c0.199-0.22,0.298-0.474,0.298-0.761c0-0.14-0.024-0.276-0.072-0.408c-0.048-0.132-0.121-0.248-0.221-0.347
					c-0.099-0.099-0.222-0.178-0.37-0.237c-0.147-0.059-0.32-0.089-0.518-0.089h-1.312v2.173H334.288z"/>
			</g>
		</g>
		<g style="opacity:0.61;">
			<path style="fill:#FFFFFF;" d="M300.133,433.27h9.067v2.242h-9.067V433.27z M300.133,437.136h9.067v2.243h-9.067V437.136z"/>
		</g>
	</g>
	<g style="opacity:0.61;">
		<path style="fill:#FFFFFF;" d="M156.756,478.878h1.607c1.263,0,2.114,0.812,2.114,1.974c0,1.161-0.851,1.973-2.114,1.973h-1.607
			V478.878z M158.34,482.464c1.049,0,1.725-0.665,1.725-1.612c0-0.947-0.677-1.613-1.725-1.613h-1.167v3.225H158.34z"/>
		<path style="fill:#FFFFFF;" d="M165.139,480.851c0-1.15,0.879-2.007,2.075-2.007c1.184,0,2.069,0.851,2.069,2.007
			c0,1.156-0.885,2.007-2.069,2.007C166.019,482.858,165.139,482.002,165.139,480.851z M168.866,480.851
			c0-0.942-0.705-1.635-1.652-1.635c-0.953,0-1.663,0.693-1.663,1.635c0,0.941,0.71,1.635,1.663,1.635
			C168.162,482.486,168.866,481.793,168.866,480.851z"/>
		<path style="fill:#FFFFFF;" d="M179.596,478.878l-1.331,3.947h-0.44l-1.156-3.366l-1.161,3.366h-0.434l-1.331-3.947h0.429
			l1.139,3.394l1.178-3.394h0.389l1.161,3.411l1.156-3.411H179.596z"/>
		<path style="fill:#FFFFFF;" d="M187.731,478.878v3.947h-0.344l-2.537-3.202v3.202h-0.417v-3.947h0.344l2.543,3.203v-3.203H187.731
			z"/>
		<path style="fill:#FFFFFF;" d="M193.093,478.878h0.417v3.586h2.21v0.361h-2.627V478.878z"/>
		<path style="fill:#FFFFFF;" d="M200.061,480.851c0-1.15,0.879-2.007,2.075-2.007c1.184,0,2.069,0.851,2.069,2.007
			c0,1.156-0.885,2.007-2.069,2.007C200.941,482.858,200.061,482.002,200.061,480.851z M203.788,480.851
			c0-0.942-0.705-1.635-1.652-1.635c-0.953,0-1.663,0.693-1.663,1.635c0,0.941,0.71,1.635,1.663,1.635
			C203.083,482.486,203.788,481.793,203.788,480.851z"/>
		<path style="fill:#FFFFFF;" d="M211.636,481.77h-2.199l-0.474,1.054h-0.434l1.804-3.947h0.412l1.804,3.947h-0.44L211.636,481.77z
			 M211.484,481.432l-0.947-2.12l-0.947,2.12H211.484z"/>
		<path style="fill:#FFFFFF;" d="M217.28,478.878h1.607c1.263,0,2.114,0.812,2.114,1.974c0,1.161-0.851,1.973-2.114,1.973h-1.607
			V478.878z M218.864,482.464c1.049,0,1.725-0.665,1.725-1.612c0-0.947-0.677-1.613-1.725-1.613h-1.167v3.225H218.864z"/>
		<path style="fill:#FFFFFF;" d="M234.041,481.77h-2.199l-0.474,1.054h-0.434l1.804-3.947h0.412l1.804,3.947h-0.44L234.041,481.77z
			 M233.889,481.432l-0.947-2.12l-0.947,2.12H233.889z"/>
		<path style="fill:#FFFFFF;" d="M239.685,478.878h0.417v3.586h2.21v0.361h-2.627V478.878z"/>
		<path style="fill:#FFFFFF;" d="M247.082,478.878h0.417v3.586h2.21v0.361h-2.627V478.878z"/>
		<path style="fill:#FFFFFF;" d="M260.449,479.239v1.551h2.041v0.361h-2.041v1.675h-0.417v-3.947h2.706v0.361H260.449z"/>
		<path style="fill:#FFFFFF;" d="M267.678,478.878h0.417v3.947h-0.417V478.878z"/>
		<path style="fill:#FFFFFF;" d="M273.456,478.878h0.417v3.586h2.21v0.361h-2.627V478.878z"/>
		<path style="fill:#FFFFFF;" d="M283.644,482.464v0.361h-2.791v-3.947h2.706v0.361h-2.289v1.404h2.041v0.355h-2.041v1.466H283.644z
			"/>
		<path style="fill:#FFFFFF;" d="M294.672,479.239v1.551h2.041v0.361h-2.041v1.675h-0.417v-3.947h2.706v0.361H294.672z"/>
		<path style="fill:#FFFFFF;" d="M301.5,480.851c0-1.15,0.879-2.007,2.075-2.007c1.184,0,2.069,0.851,2.069,2.007
			c0,1.156-0.885,2.007-2.069,2.007C302.379,482.858,301.5,482.002,301.5,480.851z M305.226,480.851
			c0-0.942-0.705-1.635-1.652-1.635c-0.953,0-1.663,0.693-1.663,1.635c0,0.941,0.71,1.635,1.663,1.635
			C304.522,482.486,305.226,481.793,305.226,480.851z"/>
		<path style="fill:#FFFFFF;" d="M313.351,482.825l-0.902-1.269c-0.102,0.011-0.203,0.017-0.316,0.017h-1.06v1.252h-0.417v-3.947
			h1.477c1.004,0,1.613,0.507,1.613,1.353c0,0.62-0.327,1.054-0.902,1.24l0.964,1.353H313.351z M313.328,480.231
			c0-0.632-0.417-0.992-1.207-0.992h-1.048v1.979h1.048C312.911,481.218,313.328,480.851,313.328,480.231z"/>
		<path style="fill:#FFFFFF;" d="M322.907,478.878v3.947h-0.4v-3.158l-1.551,2.656h-0.197l-1.551-2.639v3.14h-0.4v-3.947h0.344
			l1.714,2.926l1.697-2.926H322.907z"/>
		<path style="fill:#FFFFFF;" d="M330.744,481.77h-2.199l-0.473,1.054h-0.434l1.804-3.947h0.411l1.804,3.947h-0.44L330.744,481.77z
			 M330.592,481.432l-0.947-2.12l-0.947,2.12H330.592z"/>
		<path style="fill:#FFFFFF;" d="M336.957,479.239h-1.387v-0.361h3.192v0.361h-1.387v3.586h-0.417V479.239z"/>
		<path style="fill:#FFFFFF;" d="M343.063,482.346l0.164-0.321c0.282,0.276,0.784,0.479,1.302,0.479c0.739,0,1.06-0.31,1.06-0.699
			c0-1.083-2.43-0.417-2.43-1.877c0-0.581,0.451-1.083,1.455-1.083c0.446,0,0.908,0.13,1.224,0.35l-0.141,0.333
			c-0.338-0.22-0.733-0.327-1.083-0.327c-0.722,0-1.043,0.321-1.043,0.716c0,1.083,2.43,0.429,2.43,1.866
			c0,0.581-0.462,1.077-1.472,1.077C343.937,482.858,343.356,482.65,343.063,482.346z"/>
	</g>
</g>
<g>
</g>
<g id="g3066" transform="matrix(1.25,0,0,-1.25,-10.326023,723.27072)">
	<g id="g16889" transform="matrix(0.92303334,0,0,0.92303334,139.72482,8.1847414)">
		<g id="g16865" transform="translate(-528,-192)">
			<g>
				<defs>
					<path id="SVGID_1_" d="M488.386,579.61c7.684,0,13.914,6.229,13.914,13.912c0,7.685-6.23,13.914-13.914,13.914
						c-7.684,0-13.913-6.229-13.913-13.914C474.472,585.839,480.702,579.61,488.386,579.61"/>
				</defs>
				<clipPath id="SVGID_00000093145031256657433230000009030594595596370619_">
					<use xlink:href="#SVGID_1_"  style="overflow:visible;"/>
				</clipPath>
				<g id="g16867" style="clip-path:url(#SVGID_00000093145031256657433230000009030594595596370619_);">
					<path id="path16869" style="fill:#E41C29;" d="M488.786,592.204l0.206-0.042l-0.06-0.2l0.026-0.015l0.304,0.358l-0.014,0.025
						l-0.462-0.095L488.786,592.204z M488.82,592.77l0.027-0.015l0.266,0.287l-0.015,0.026l-0.386-0.064l-0.001-0.031l0.167-0.041
						L488.82,592.77L488.82,592.77z M487.941,590.519l-0.313,0.001l-0.008-0.03l0.123-0.054l-0.065-0.117l0.023-0.021l0.248,0.193
						L487.941,590.519L487.941,590.519z M488.606,591.044l-0.391-0.014l-0.004-0.031l0.159-0.063l-0.078-0.153l0.024-0.02
						l0.301,0.25L488.606,591.044L488.606,591.044z M488.922,591.388l0.217-0.032l-0.051-0.212l0.028-0.013l0.293,0.39l-0.016,0.024
						l-0.474-0.128L488.922,591.388L488.922,591.388z M487.883,589.829l-0.006-0.03l0.125-0.053l-0.065-0.117l0.023-0.02
						l0.247,0.192l-0.01,0.027L487.883,589.829L487.883,589.829z M489.838,589.803l0.211,0.231l-0.015,0.027l-0.309-0.054
						l-0.001-0.031l0.13-0.032l-0.042-0.127L489.838,589.803L489.838,589.803z M489.993,591.781l0.359,0.496l-0.017,0.024
						l-0.588-0.17l0.002-0.031l0.276-0.035l-0.06-0.271L489.993,591.781L489.993,591.781z M488.859,590.378h-0.392l-0.007-0.031
						l0.159-0.068l-0.085-0.15l0.024-0.02l0.311,0.24L488.859,590.378L488.859,590.378z M489.577,593.059l0.269-0.072l-0.098-0.26
						l0.026-0.016l0.425,0.441l-0.014,0.027l-0.605-0.088L489.577,593.059z M489.398,590.352l0.317,0.373l-0.016,0.026l-0.478-0.1
						v-0.031l0.213-0.044l-0.064-0.208L489.398,590.352L489.398,590.352z M490.377,594.125l0.023-0.02l0.249,0.192l-0.01,0.027
						h-0.313l-0.006-0.029l0.123-0.054L490.377,594.125L490.377,594.125z M489.525,593.6l0.024-0.02l0.386,0.3l-0.01,0.029
						l-0.49,0.001l-0.007-0.03l0.202-0.087L489.525,593.6L489.525,593.6z M491.133,591.174v-0.031l0.166-0.041l-0.057-0.161
						l0.026-0.016l0.267,0.287l-0.014,0.026L491.133,591.174L491.133,591.174z M492.3,593.933l0.026-0.02l0.247,0.192l-0.01,0.028
						h-0.313l-0.006-0.029l0.123-0.054L492.3,593.933z M489.177,589.768l-0.314,0.002l-0.004-0.03l0.122-0.053l-0.065-0.117
						l0.024-0.021l0.248,0.192L489.177,589.768z M491.423,594.077l0.023-0.02l0.309,0.24l-0.009,0.027h-0.393l-0.006-0.029
						l0.157-0.069L491.423,594.077L491.423,594.077z M490.823,591.992l0.214-0.041l-0.061-0.209l0.028-0.015l0.311,0.378
						l-0.016,0.026l-0.478-0.109L490.823,591.992L490.823,591.992z M491.124,594.781l1.593-0.002c0,0,0.503-0.19,1.163-0.455
						c0.305-0.122,0.465-0.397,0.44-0.708c0,0,0.262-0.262,0.407-0.427c0.173-0.2,0.193-0.477,0.056-0.659
						c-0.134-0.178-0.327-0.222-0.408-0.233l-0.014,0.03c0.104,0.105,0.062,0.273-0.03,0.407c-0.097,0.139-0.184,0.165-0.284,0.105
						c-0.043-0.027-0.1-0.069-0.1-0.069l0.247-0.395l-0.008-0.029c-0.198-0.054-0.47-0.012-0.596,0.149c-0.006,0-0.006,0-1.226,0
						l-0.001-0.031l0.682-0.124l0.021-0.047l-2.343-2.755l0.022-0.02l0.797,0.713l0.001-0.622l-0.073-0.188l0.074-0.436
						l-0.026-0.187c0,0,0.724-0.622,0.729-0.622h0.001c0,0,0.01-0.006,0.02-0.009c0.007-0.004,0.017-0.01,0.028-0.016
						c0.01-0.005,0.022-0.012,0.034-0.019c0.012-0.007,0.026-0.016,0.039-0.025c0.014-0.007,0.024-0.02,0.039-0.03
						c0.014-0.012,0.027-0.022,0.038-0.035c0.012-0.012,0.024-0.026,0.036-0.039c0.01-0.014,0.023-0.028,0.032-0.042
						c0.011-0.015,0.018-0.03,0.028-0.044c0.006-0.015,0.016-0.029,0.022-0.044c0.007-0.015,0.014-0.029,0.018-0.042
						c0.006-0.014,0.01-0.025,0.014-0.037c0.005-0.009,0.008-0.021,0.01-0.031c0.005-0.018,0.009-0.029,0.009-0.029l0.032-0.002
						c0,0,0.006,0.011,0.011,0.029c0.005,0.008,0.008,0.02,0.01,0.034c0.003,0.015,0.006,0.032,0.005,0.05v0.027
						c-0.001,0.01-0.004,0.02-0.004,0.03c-0.002,0.021-0.01,0.041-0.016,0.063c-0.007,0.022-0.017,0.044-0.028,0.064
						c-0.011,0.021-0.026,0.04-0.042,0.059c-0.016,0.017-0.031,0.035-0.051,0.05c-0.018,0.016-0.038,0.028-0.057,0.039
						c-0.021,0.01-0.039,0.02-0.06,0.025c-0.008,0.003-0.015,0.005-0.022,0.007c0.091,0.021,0.183,0.04,0.271,0.061h0.001
						c0-0.001,0-0.001,0.001-0.001c0.008-0.003,0.017-0.009,0.028-0.015c0.011-0.006,0.023-0.012,0.034-0.021
						c0.013-0.006,0.026-0.015,0.037-0.024c0.016-0.008,0.027-0.021,0.041-0.03c0.012-0.013,0.027-0.023,0.037-0.035
						c0.014-0.012,0.026-0.026,0.037-0.04c0.011-0.014,0.022-0.027,0.032-0.042c0.009-0.015,0.018-0.029,0.027-0.044
						c0.007-0.015,0.018-0.029,0.023-0.043c0.007-0.015,0.013-0.03,0.019-0.042c0.006-0.014,0.01-0.025,0.012-0.037
						c0.005-0.01,0.009-0.021,0.011-0.031c0.005-0.019,0.009-0.028,0.009-0.028l0.032-0.002c0,0,0.004,0.011,0.01,0.03
						c0.005,0.007,0.009,0.019,0.011,0.034c0.003,0.015,0.004,0.032,0.004,0.049v0.028c-0.001,0.01-0.002,0.019-0.002,0.029
						c-0.003,0.021-0.011,0.041-0.016,0.063c-0.008,0.021-0.017,0.042-0.029,0.062c-0.011,0.022-0.026,0.04-0.04,0.06
						c-0.017,0.017-0.033,0.036-0.051,0.05c-0.019,0.016-0.039,0.027-0.059,0.039c-0.018,0.009-0.036,0.019-0.056,0.024
						c1.283,0.278,2.277,0.465,2.277,0.465c1.297-0.767,1.215-0.721,1.484-0.869c0.494-0.274,0.473-1.082-0.461-1.082
						c-0.703,0-2.004-0.12-2.796-0.274l0.7,0.636l-0.022,0.022c0,0-0.693-0.503-1.516-0.914v-0.001
						c-0.446-0.179-1.118-0.472-1.81-0.78l1.023,0.968l-0.024,0.023c0,0-1.307-1.052-2.233-1.544
						c-0.556-0.252-1.037-0.472-1.306-0.595c-0.375-0.171-0.67-0.219-1.089-0.071c-0.666,0.236-0.926,0.328-1.491,0.544
						c-0.328,0.125-0.353,0.587-0.002,0.699c0.153,0.049,0.553,0.176,0.817,0.261c0.115-0.051,0.235-0.102,0.354-0.155
						c0.188-0.083,0.376-0.166,0.554-0.243c0.089-0.038,0.174-0.075,0.254-0.112c0.02-0.008,0.04-0.017,0.06-0.026
						c0.011-0.005,0.021-0.009,0.03-0.012l0.014-0.006v-0.001l0.003-0.001l0.001,0l0.007-0.004c0.038-0.022,0.064-0.039,0.093-0.063
						c0.054-0.046,0.09-0.101,0.11-0.155c0.021-0.055,0.024-0.106,0.022-0.148c-0.001-0.042-0.011-0.076-0.017-0.099
						c-0.007-0.021-0.009-0.033-0.009-0.033l0.035-0.015c0,0,0.005,0.013,0.016,0.035c0.009,0.024,0.021,0.06,0.027,0.106
						c0.005,0.047,0.006,0.107-0.012,0.172c-0.018,0.065-0.058,0.135-0.117,0.194c-0.028,0.027-0.066,0.06-0.099,0.08l-0.009,0.004
						l-0.002,0.003l-0.006,0.004l-0.014,0.007c-0.009,0.005-0.018,0.012-0.027,0.016c-0.019,0.011-0.038,0.022-0.057,0.033
						c-0.077,0.044-0.158,0.091-0.242,0.137c-0.166,0.097-0.344,0.199-0.524,0.301c-0.394,0.227-0.79,0.453-1.064,0.61
						c-0.003,0.001-0.004,0.001-0.004,0.002c0,0,1.383,0.435,3.148,0.92l0.284-0.125l0.009,0.018l0.005,0.007l-0.167,0.133
						l-0.437,0.352l-0.216,0.075l-0.144,0.395l-0.196,0.111l-0.193,0.88l-0.031-0.006l0.079-0.961l-0.549-0.308v1.271l-0.031,0.005
						l-0.159-1.341l-0.739-0.143l0.252,1.457l-0.032,0.006l-0.453-1.489l-0.724-0.049l0.525,1.555l-0.031,0.014l-0.773-1.585h-0.001
						l-0.715-0.046l0.834,1.64l-0.027,0.016l-1.142-1.69l-0.761-0.119l1.235,1.821l-0.024,0.019l-2.08-2.417l-0.112,0.075
						l1.863,2.921l2.853,1.066c0,0,0.192,0.084,0.303,0.131c0.055,0.024,0.112,0.047,0.174,0.078c0.03,0.014,0.059,0.033,0.089,0.05
						c0.028,0.017,0.056,0.036,0.084,0.055c0.054,0.041,0.107,0.083,0.153,0.132l0.035,0.034c0.01,0.012,0.021,0.025,0.032,0.037
						c0.022,0.023,0.04,0.049,0.06,0.074c0.018,0.025,0.034,0.052,0.052,0.077c0.014,0.025,0.029,0.052,0.044,0.076
						c0.013,0.025,0.025,0.051,0.036,0.074c0.011,0.025,0.021,0.049,0.031,0.072c0.017,0.047,0.031,0.09,0.041,0.129
						c0.011,0.039,0.017,0.074,0.023,0.102c0.005,0.028,0.008,0.05,0.01,0.065c0.001,0.015,0.003,0.023,0.003,0.023l-0.033,0.006
						c0,0-0.002-0.008-0.006-0.023c-0.003-0.015-0.008-0.038-0.015-0.064c-0.007-0.027-0.016-0.059-0.03-0.094
						c-0.011-0.037-0.029-0.078-0.047-0.12c-0.011-0.021-0.022-0.043-0.034-0.065c-0.012-0.022-0.027-0.044-0.04-0.068
						c-0.016-0.022-0.031-0.045-0.048-0.068c-0.018-0.022-0.034-0.045-0.053-0.067c-0.02-0.022-0.039-0.044-0.061-0.064
						l-0.034-0.032l-0.033-0.03c-0.046-0.04-0.097-0.075-0.15-0.108c-0.027-0.016-0.054-0.031-0.08-0.044
						c-0.029-0.013-0.055-0.027-0.083-0.038c-0.055-0.022-0.115-0.043-0.171-0.063c-0.115-0.04-0.22-0.078-0.312-0.111
						c-0.09-0.033-0.166-0.059-0.219-0.078l-0.183,0.37l0.37,0.326l-0.018,0.025l-0.989-0.607l-0.232,0.466l1.337,0.99l-0.022,0.028
						l-2.033-1.216l-0.186,0.491l1.916,1.28l-0.016,0.026l-2.469-1.355l-0.117,0.461l2.089,1.327l-0.016,0.027l-2.557-1.304
						l-0.074,0.545v0l2.109,1.137l-0.013,0.027l-2.611-1.088l-0.011,0.532l2.131,0.832l-0.01,0.032l-2.587-0.708l0.031,0.582
						l1.966,0.451l-0.006,0.03l-2.516-0.344l0.081,0.502l1.852,0.199v0.032l-2.588-0.042l0.039,0.424l2.062,0.014l0.003,0.031
						l-3.705,0.271l-0.006,0.034l0.6,0.209l-0.001,0.029l-1.534,0.585l0.003,0.033l0.614,0.049l0.006,0.032l-1.325,0.818
						l0.009,0.045l0.928-0.053l0.011,0.029l-1.069,1.003l0.013,0.031l0.503-0.096l0.015,0.024l-0.502,0.632l-0.311,0.895
						l0.031,0.016l0.48-0.605l1.086-0.625l0.023,0.022l-0.701,1.029l-0.261,1.149l0.031,0.014l0.566-0.849l1.097-0.893l0.021,0.022
						l-0.67,1.217l-0.231,1.487l0.037,0.007l0.655-1.266l1.374-1.142l0.026,0.021l-0.946,1.52l-0.214,1.823l0.031,0.009l0.59-1.616
						l1.949-1.755l2.46-1.258l2.697-3.749l1.05-0.885l0.025,0.024l-0.46,0.599h0.005l0.001,0.001l-0.006-0.001l1.082,0.279
						l-0.002,0.033l-0.939,0.055l-0.004,0.032l1.378,0.245l-0.004,0.031l-1.72,0.131l-0.001,0.032l2.192,0.368l0.871-0.206
						l0.01,0.03l-0.832,0.381l-1.359-0.029l-0.004,0.032l1.451,0.273l0.899-0.307l0.012,0.029l-0.815,0.517l-0.966,0.04v0.034
						l1.079,0.167l0.947-0.442l0.017,0.028l-0.779,0.732l-0.848,0.004l-0.004,0.034l1.032,0.231l0.917-0.754l0.022,0.022
						l-0.705,1.03l-0.768,0.144l0.004,0.032l0.971,0.059l0.876-1.065l0.026,0.017l-0.628,1.325l-0.84,0.274l0.006,0.033l1.071-0.088
						l0.813-1.398l0.028,0.013l-0.539,1.64l-1.054,0.377l0.007,0.032l1.275-0.229l0.71-1.686l0.032,0.008l-0.465,1.881l-1.131,0.641
						l0.016,0.031l1.344-0.511l0.64-1.885l0.032,0.007l-0.4,2.058l-1.229,0.895l0.018,0.029l1.431-0.784l0.56-1.983l0.033,0.008
						l-0.352,2.123l-1.287,1.142l0.02,0.024l1.505-1.026l0.436-2.021l0.03,0.006l-0.221,2.148l-1.283,1.389l0.022,0.026l1.487-1.272
						l0.328-1.958l0.033,0.003l-0.144,2.057l-1.215,1.588l0.023,0.021l1.431-1.495l0.225-1.694l0.032,0.002l-0.073,1.791
						l-1.111,1.702l0.027,0.02l1.285-1.63l0.171-1.216l0.033,0.003l-0.06,1.301l-0.791,1.765l0.028,0.016l0.981-1.672l0.09-0.686
						l0.031,0.003l0.048,0.781l-0.409,1.661l0.03,0.012l0.563-1.394h0.032l0.346,1.392l0.034-0.008l-0.113-1.37l0.031-0.009
						l0.953,1.37l0.027-0.016l-0.617-1.237l0.021-0.023l1.455,1.039l0.018-0.026l-2.218-2.995c0,0-0.72-1.92-0.951-2.561
						c-0.047-0.127-0.128-0.209-0.249-0.26c-0.069-0.028-1.8-0.719-1.8-0.719l-0.475-0.419l-1.586-0.187L491.124,594.781
						L491.124,594.781z M488.689,606.855c-7.53,0-13.635-6.105-13.635-13.636c0-7.531,6.105-13.636,13.635-13.636
						c7.53,0,13.636,6.105,13.636,13.636C502.325,600.75,496.219,606.855,488.689,606.855 M490.695,592.904l0.261-0.055
						l-0.082-0.253l0.028-0.015l0.385,0.444l-0.014,0.026l-0.576-0.114L490.695,592.904L490.695,592.904z M491.768,591.789
						l0.13-0.032l-0.046-0.126l0.027-0.017l0.212,0.231l-0.013,0.026l-0.309-0.053L491.768,591.789L491.768,591.789z
						 M489.695,587.487c0.014-0.006,0.026-0.015,0.039-0.024c0.013-0.007,0.024-0.019,0.04-0.029
						c0.012-0.012,0.027-0.022,0.038-0.035c0.005-0.003,0.008-0.006,0.01-0.01c0.009-0.008,0.018-0.019,0.027-0.028
						c0.011-0.014,0.022-0.027,0.032-0.042c0.011-0.014,0.02-0.029,0.029-0.043c0.007-0.015,0.018-0.029,0.023-0.044
						c0.007-0.013,0.014-0.027,0.018-0.041c0.008-0.014,0.011-0.025,0.015-0.037c0.005-0.011,0.009-0.02,0.011-0.031
						c0.006-0.018,0.009-0.028,0.009-0.028l0.032-0.001c0,0,0.005,0.01,0.011,0.029c0.004,0.007,0.006,0.02,0.007,0.034
						c0.003,0.015,0.005,0.032,0.004,0.05c-0.001,0.008-0.001,0.018-0.001,0.027s-0.001,0.019-0.004,0.029
						c-0.003,0.022-0.01,0.041-0.016,0.063c-0.009,0.021-0.018,0.042-0.031,0.062c-0.006,0.014-0.017,0.026-0.026,0.038l-0.016,0.02
						c-0.018,0.018-0.034,0.035-0.053,0.05c-0.02,0.016-0.039,0.027-0.059,0.038c-0.021,0.01-0.041,0.018-0.06,0.023
						c-0.009,0.003-0.021,0.006-0.029,0.01c-0.004,0.001-0.011,0.001-0.016,0.002c-0.004,0.001-0.007,0.001-0.011,0.001
						c-0.017,0.004-0.032,0.004-0.047,0.003c-0.014,0.001-0.027-0.001-0.037-0.002c-0.019-0.003-0.029-0.006-0.029-0.006
						l-0.002-0.03v-0.002c0,0,0.009-0.005,0.027-0.013c0.008-0.003,0.017-0.008,0.028-0.015
						C489.671,587.501,489.684,587.495,489.695,587.487 M490.933,586.991c-0.033-0.011-0.071-0.021-0.112-0.033
						c-0.073-0.022-0.161-0.046-0.257-0.075c-0.077-0.023-0.159-0.047-0.245-0.074c-0.044-0.013-0.089-0.026-0.135-0.04
						l-0.138-0.047c-0.188-0.065-0.388-0.135-0.588-0.204c-0.127-0.044-0.254-0.093-0.376-0.14
						c-0.069-0.027-0.139-0.052-0.207-0.079c-0.062-0.023-0.121-0.047-0.181-0.071c-0.028-0.011-0.057-0.021-0.085-0.034
						c-0.064-0.025-0.129-0.052-0.188-0.076l-0.05-0.02c-0.096-0.04-0.181-0.076-0.253-0.107c-0.036-0.016-0.07-0.031-0.098-0.043
						c-0.087-0.036-0.135-0.057-0.135-0.057l-0.009-0.005l0.021-0.048l0.009,0.003c0,0,0.049,0.017,0.136,0.048
						c0.031,0.011,0.066,0.024,0.102,0.036c0.074,0.026,0.161,0.057,0.259,0.093l0.072,0.027c0.054,0.02,0.11,0.041,0.168,0.061
						l0.084,0.03c0.059,0.022,0.122,0.043,0.185,0.066c0.066,0.024,0.133,0.05,0.204,0.075c0.123,0.046,0.249,0.093,0.378,0.137
						c0.198,0.071,0.397,0.142,0.585,0.209c0.089,0.031,0.18,0.065,0.269,0.095c0.064,0.022,0.124,0.042,0.183,0.062l0.06,0.02
						c0.096,0.034,0.183,0.063,0.253,0.09c0.042,0.014,0.077,0.026,0.108,0.037l0.146,0.054l-0.014,0.05L490.933,586.991
						L490.933,586.991z M488.287,586.531l0.112,0.037c0.146,0.046,0.289,0.094,0.426,0.141c0.055,0.018,0.106,0.036,0.156,0.053
						l0.041,0.014l0.176,0.06c0.074,0.024,0.14,0.046,0.193,0.065c0.026,0.009,0.049,0.018,0.069,0.024
						c0.065,0.023,0.1,0.037,0.1,0.037l0.011,0.004l-0.016,0.049l-0.01-0.002c0,0-0.038-0.008-0.102-0.024l-0.052-0.013
						c-0.06-0.014-0.134-0.031-0.219-0.054l-0.181-0.047c-0.044-0.012-0.09-0.027-0.137-0.041l-0.061-0.019
						c-0.127-0.039-0.27-0.085-0.431-0.138c-0.118-0.039-0.232-0.081-0.343-0.12l-0.083-0.029l-0.041-0.015
						c-0.12-0.043-0.231-0.084-0.327-0.122c-0.044-0.016-0.083-0.032-0.117-0.047l-0.031-0.012l-0.113-0.045
						c-0.062-0.026-0.097-0.04-0.097-0.04l-0.01-0.005l0.019-0.048c0,0,0.047,0.014,0.112,0.034
						c0.023,0.007,0.048,0.014,0.076,0.024l0.082,0.025c0.033,0.01,0.07,0.022,0.107,0.034c0.067,0.023,0.143,0.045,0.222,0.071
						c0.05,0.015,0.101,0.031,0.152,0.047C488.073,586.462,488.179,586.495,488.287,586.531 M490.51,590.457l-0.001-0.031
						l0.167-0.041l-0.056-0.161l0.026-0.016l0.266,0.287l-0.014,0.027L490.51,590.457L490.51,590.457z M490.228,590.855l0.341,0.508
						l-0.017,0.023l-0.58-0.191l0.002-0.031l0.276-0.025l-0.05-0.273L490.228,590.855L490.228,590.855z M492.041,592.694
						l-0.39-0.035l-0.004-0.03l0.163-0.055l-0.068-0.156l0.023-0.018l0.289,0.266L492.041,592.694L492.041,592.694z
						 M490.222,588.338l-0.805,0.986l-0.042-0.018l0.207-1.172l0.423-0.492c0,0,0.014-0.006,0.022-0.011
						c0.008-0.004,0.02-0.009,0.03-0.015c0.01-0.005,0.022-0.012,0.034-0.019c0.012-0.007,0.027-0.015,0.04-0.024
						c0.013-0.007,0.026-0.02,0.04-0.03c0.011-0.011,0.026-0.021,0.038-0.034c0.012-0.012,0.024-0.026,0.036-0.039
						c0.011-0.014,0.023-0.027,0.032-0.042c0.012-0.013,0.019-0.029,0.029-0.043c0.008-0.015,0.018-0.029,0.023-0.043
						c0.007-0.015,0.014-0.028,0.019-0.042c0.006-0.014,0.01-0.025,0.015-0.036c0.004-0.011,0.008-0.022,0.009-0.031
						c0.006-0.018,0.011-0.029,0.011-0.029h0.03c0,0,0.004,0.01,0.011,0.027c0.002,0.009,0.007,0.021,0.009,0.037
						c0.002,0.014,0.005,0.031,0.004,0.049v0.027c-0.003,0.009-0.004,0.019-0.005,0.029c-0.003,0.021-0.011,0.041-0.017,0.062
						c-0.009,0.021-0.017,0.043-0.031,0.062c-0.01,0.022-0.027,0.04-0.042,0.059c-0.016,0.018-0.034,0.035-0.052,0.049
						c-0.018,0.016-0.039,0.027-0.057,0.039c-0.022,0.008-0.04,0.018-0.06,0.024c-0.011,0.003-0.02,0.005-0.029,0.007
						c-0.001,0-0.001,0-0.001,0c0.01,0.003,0.021,0.005,0.032,0.009c0.079,0.019,0.157,0.039,0.236,0.06
						c0.004-0.002,0.006-0.004,0.011-0.006c0.01-0.003,0.02-0.008,0.029-0.014c0.011-0.006,0.022-0.011,0.034-0.018
						c0.014-0.006,0.026-0.016,0.039-0.024c0.015-0.007,0.027-0.02,0.04-0.03c0.012-0.011,0.028-0.022,0.039-0.034
						c0.015-0.011,0.024-0.026,0.038-0.038c0.01-0.014,0.022-0.027,0.032-0.042c0.011-0.015,0.019-0.03,0.028-0.043
						c0.008-0.015,0.018-0.029,0.023-0.044c0.007-0.014,0.016-0.027,0.02-0.041c0.007-0.014,0.011-0.024,0.014-0.036
						c0.005-0.011,0.01-0.022,0.012-0.031c0.004-0.019,0.009-0.03,0.009-0.03h0.031c0,0,0.005,0.01,0.011,0.028
						c0.002,0.008,0.007,0.021,0.007,0.035c0.004,0.014,0.005,0.031,0.004,0.049v0.028c-0.001,0.009-0.002,0.019-0.004,0.029
						c-0.002,0.022-0.01,0.041-0.017,0.063c-0.008,0.021-0.016,0.043-0.03,0.062c-0.01,0.021-0.027,0.04-0.042,0.06
						c-0.017,0.016-0.033,0.034-0.054,0.048c-0.017,0.016-0.037,0.027-0.057,0.039c-0.021,0.009-0.04,0.018-0.06,0.023
						c-0.004,0.002-0.008,0.003-0.011,0.003c0.221,0.056,0.442,0.109,0.665,0.162l-0.72,0.401L490.222,588.338L490.222,588.338z
						 M491.568,593.554l0.202-0.087l-0.106-0.191l0.024-0.02l0.387,0.3l-0.013,0.028l-0.488,0L491.568,593.554L491.568,593.554z
						 M484.477,598.017l-0.915-0.466l-0.05,0.271l-0.044-0.004l-0.005-0.45l0.037-0.017l0.999,0.631L484.477,598.017
						L484.477,598.017z M485.353,596.915l-1.279-0.694l-0.05,0.271l-0.042-0.005l-0.007-0.45l0.035-0.019l1.365,0.86
						L485.353,596.915L485.353,596.915z M484.935,597.48l-1.211-0.639l-0.049,0.27l-0.041-0.006l-0.006-0.449l0.033-0.016
						l1.295,0.804L484.935,597.48z M486.825,595.271l-0.913-0.466l-0.05,0.265l-0.041-0.005l-0.006-0.443l0.032-0.017l1,0.63
						L486.825,595.271L486.825,595.271z M486.328,595.815l-1.103-0.573l-0.049,0.271l-0.042-0.006l-0.006-0.447l0.032-0.021
						l1.192,0.74L486.328,595.815z M485.835,596.348l-1.253-0.654l-0.05,0.271l-0.042-0.005l-0.005-0.45l0.036-0.017l1.336,0.819
						L485.835,596.348L485.835,596.348z M482.868,597.039l0.013,0.052l-2.812,0.771l-1.266,1.031l-0.036-0.034l1.173-1.188
						L482.868,597.039z M482.947,597.612l0.019,0.051l-2.382,0.769l-1.177,1.106l-0.034-0.038l1.055-1.247L482.947,597.612
						L482.947,597.612z M490.559,593.755l0.201-0.087l-0.107-0.191l0.023-0.021l0.387,0.299l-0.009,0.029l-0.489,0.002
						L490.559,593.755L490.559,593.755z M480.067,596.468l1.036-0.302l2.052-0.188l0.006,0.056l-3.083,0.485L480.067,596.468
						L480.067,596.468z M480.334,600.003l-0.038-0.03l0.861-1.186l2.082-0.691l0.021,0.049l-1.93,0.795L480.334,600.003
						L480.334,600.003z M487.24,594.701l-0.654-0.312l-0.051,0.247l-0.041-0.002l-0.006-0.428l0.038-0.016l0.738,0.475
						L487.24,594.701L487.24,594.701z M482.906,596.58l-3.896,0.804l-0.015-0.05l1.01-0.37l2.889-0.439L482.906,596.58
						L482.906,596.58z M484.05,598.368l0.024,0.049l-1.802,0.866l-1.097,1.46l-0.04-0.028l0.98-1.599L484.05,598.368L484.05,598.368
						z M491.663,587.168c0,0,0.019,0.002,0.053,0.007c0.012,0.002,0.023,0.004,0.036,0.006c0.028,0.004,0.062,0.01,0.1,0.016
						c0.065,0.012,0.128,0.024,0.191,0.038c0.059,0.012,0.122,0.026,0.185,0.041l0.037,0.009c0.071,0.015,0.145,0.031,0.211,0.048
						c0.074,0.018,0.138,0.035,0.189,0.05c0.037,0.008,0.068,0.019,0.095,0.026c0.015,0.005,0.026,0.008,0.038,0.012
						c0.032,0.011,0.05,0.017,0.05,0.017l0.009,0.003l-0.01,0.048l-0.01-0.001c0,0-0.019-0.001-0.053-0.005
						c-0.011-0.002-0.024-0.003-0.039-0.005c-0.028-0.003-0.061-0.008-0.098-0.014c-0.056-0.008-0.121-0.018-0.193-0.031
						c-0.069-0.014-0.146-0.029-0.219-0.044c-0.134-0.033-0.282-0.073-0.405-0.111c-0.037-0.012-0.072-0.024-0.1-0.034l-0.03-0.009
						c-0.031-0.011-0.05-0.018-0.05-0.018l-0.009-0.003l0.011-0.049L491.663,587.168L491.663,587.168z M493.314,587.901
						c0,0,0.024,0.001,0.066,0.007c0.013,0.002,0.027,0.003,0.046,0.005c0.035,0.004,0.078,0.009,0.126,0.017
						c0.158,0.023,0.349,0.055,0.525,0.088l0.045,0.008c0.079,0.016,0.158,0.031,0.232,0.049c0.038,0.007,0.074,0.014,0.11,0.022
						c0.047,0.01,0.091,0.018,0.134,0.027c0.046,0.01,0.089,0.021,0.124,0.03l0.046,0.012c0.041,0.01,0.064,0.016,0.064,0.016
						l0.009,0.002l-0.008,0.05h-0.01c0,0-0.024-0.001-0.066-0.006l-0.041-0.004c-0.037-0.003-0.083-0.008-0.134-0.015l-0.013-0.002
						c-0.07-0.01-0.149-0.019-0.231-0.033c-0.088-0.015-0.182-0.033-0.273-0.05l-0.008-0.001c-0.17-0.033-0.36-0.073-0.52-0.11
						c-0.046-0.01-0.086-0.022-0.12-0.03c-0.017-0.006-0.036-0.009-0.05-0.013c-0.04-0.011-0.064-0.017-0.064-0.017l-0.011-0.003
						l0.011-0.05L493.314,587.901L493.314,587.901z M491.896,588.051c0.011-0.006,0.022-0.012,0.034-0.02
						c0.012-0.006,0.026-0.016,0.038-0.025c0.013-0.008,0.026-0.02,0.04-0.03c0.005-0.006,0.013-0.013,0.021-0.018
						c0.006-0.005,0.012-0.011,0.018-0.016c0.012-0.013,0.023-0.027,0.036-0.04c0.009-0.014,0.022-0.028,0.031-0.043
						c0.01-0.015,0.019-0.029,0.027-0.043c0.007-0.016,0.017-0.03,0.023-0.044c0.006-0.014,0.014-0.028,0.017-0.042
						c0.006-0.014,0.009-0.026,0.015-0.036c0.004-0.012,0.009-0.022,0.01-0.032c0.006-0.019,0.008-0.03,0.008-0.03l0.033-0.001
						c0,0,0.004,0.01,0.01,0.028c0.004,0.009,0.008,0.02,0.009,0.035c0.002,0.015,0.005,0.032,0.005,0.049v0.028
						c-0.001,0.008-0.003,0.019-0.005,0.03c0,0.02-0.008,0.041-0.015,0.063c-0.007,0.02-0.016,0.042-0.028,0.062
						c-0.011,0.022-0.027,0.041-0.041,0.06c-0.004,0.003-0.006,0.007-0.01,0.01c-0.013,0.015-0.027,0.029-0.041,0.04
						c-0.017,0.016-0.039,0.027-0.056,0.04c-0.021,0.009-0.041,0.019-0.062,0.025c-0.009,0.002-0.017,0.006-0.027,0.008
						c-0.008,0.002-0.016,0.003-0.023,0.004c-0.001,0.001-0.002,0.001-0.005,0.001c-0.016,0.005-0.032,0.005-0.046,0.005
						c-0.013,0.001-0.027,0-0.037-0.002c-0.021-0.004-0.031-0.006-0.031-0.006l-0.002-0.024v-0.007c0,0,0.009-0.004,0.025-0.013
						C491.875,588.064,491.883,588.058,491.896,588.051 M493.403,592.782c0.001-0.009,0.004-0.019,0.006-0.027
						c0.004-0.01,0.005-0.018,0.009-0.025c0.005-0.007,0.009-0.015,0.012-0.02c0.003-0.007,0.007-0.012,0.009-0.017
						c0.005-0.004,0.009-0.008,0.013-0.012c0.014-0.015,0.023-0.022,0.023-0.022l0.019,0.015c0,0-0.001,0.01-0.005,0.027
						c0,0.003,0,0.007-0.001,0.012v0.016c-0.001,0.009-0.001,0.022,0.001,0.034c0,0.013,0.004,0.025,0.008,0.037
						c0.001,0.005,0.005,0.013,0.007,0.018c0.005,0.005,0.006,0.013,0.01,0.019c0.007,0.011,0.014,0.024,0.022,0.03
						c0.003,0.004,0.004,0.008,0.014,0.015l0.011,0.011l0.005,0.004h0.001c0.012,0.007,0.023,0.016,0.035,0.02
						c0.013,0.006,0.028,0.008,0.041,0.011c0.005,0.003,0.013,0.001,0.02,0.003c0.006,0.001,0.013,0.001,0.019,0
						c0.006,0,0.012-0.001,0.019-0.001c0.006-0.001,0.011-0.002,0.017-0.004c0.014-0.002,0.022-0.005,0.032-0.008
						c0.005-0.002,0.009-0.004,0.014-0.005c0.004-0.002,0.008-0.005,0.012-0.008c0.016-0.009,0.025-0.014,0.025-0.014l0.026,0.021
						c0,0-0.004,0.011-0.011,0.027c-0.001,0.005-0.004,0.008-0.007,0.013c-0.004,0.006-0.009,0.011-0.012,0.016
						c-0.006,0.005-0.011,0.012-0.017,0.018c-0.006,0.007-0.013,0.012-0.022,0.017c-0.007,0.004-0.014,0.011-0.023,0.016
						c-0.009,0.004-0.019,0.007-0.029,0.012c-0.01,0.004-0.021,0.007-0.031,0.009c-0.011,0.001-0.024,0.004-0.035,0.004
						c-0.025,0-0.051-0.002-0.075-0.01c-0.024-0.006-0.046-0.021-0.069-0.034l-0.006-0.004l-0.001-0.002l-0.002-0.002l-0.006-0.006
						l-0.011-0.01c-0.006-0.005-0.016-0.017-0.026-0.028c-0.018-0.023-0.026-0.046-0.036-0.068
						c-0.004-0.023-0.009-0.046-0.008-0.067C493.402,592.802,493.402,592.793,493.403,592.782 M493.458,593.696l0.002-0.011
						l0.003-0.009l0.01-0.022c0.004-0.011,0.017-0.03,0.028-0.044c0.006-0.009,0.012-0.016,0.018-0.021
						c0.008-0.005,0.013-0.011,0.018-0.016c0.012-0.009,0.024-0.015,0.034-0.021l0.011-0.005c0.032-0.012,0.06-0.019,0.087-0.019
						c0.005,0,0.009,0.001,0.017,0.001c0.016,0.001,0.031,0.002,0.045,0.008l0.022,0.007l0.006,0.002l0.011,0.005l0.006,0.004
						c0.015,0.009,0.054,0.037,0.066,0.059c0.016,0.02,0.027,0.043,0.032,0.072l0.003,0.009c0.001,0.008,0.002,0.016,0.002,0.025
						c0,0.01-0.001,0.019-0.001,0.029c0,0.014-0.004,0.026-0.008,0.036l-0.003,0.01c-0.012,0.023-0.02,0.034-0.021,0.034
						l-0.005,0.007l-0.038-0.014v-0.008c0,0-0.002-0.012-0.002-0.029c0-0.004-0.001-0.007-0.003-0.011
						c-0.001-0.006-0.001-0.013-0.003-0.02c-0.002-0.005-0.006-0.01-0.007-0.016c-0.003-0.004-0.004-0.007-0.006-0.011l-0.005-0.008
						c0-0.002-0.002-0.004-0.006-0.007c-0.001-0.002-0.003-0.004-0.005-0.007c-0.002-0.003-0.009-0.007-0.015-0.012
						c-0.004-0.003-0.006-0.005-0.012-0.007l-0.006-0.003l-0.001-0.002l-0.016-0.006c-0.007-0.002-0.02-0.004-0.037-0.004
						c-0.011,0-0.025,0.003-0.036,0.008c-0.004,0.002-0.007,0.004-0.011,0.006c-0.003,0.001-0.006,0.003-0.006,0.003
						c-0.004,0.004-0.007,0.006-0.011,0.008c-0.001,0.001-0.002,0.002-0.003,0.003c-0.003,0.004-0.004,0.006-0.006,0.007
						c-0.004,0.002-0.005,0.003-0.007,0.009l-0.01,0.015v0.004v0.001c-0.003,0.006-0.006,0.012-0.008,0.021
						c-0.001,0.005-0.001,0.01-0.001,0.016v0.006v0.013c0,0.002,0.001,0.005,0.001,0.009c0,0.003,0,0.006,0.003,0.009
						c0.001,0.003,0.002,0.006,0.002,0.01c0.001,0.003,0.002,0.006,0.003,0.007l0.006,0.016c0.004,0.004,0.006,0.008,0.009,0.012
						c0.004,0.004,0.005,0.008,0.005,0.008c0.018,0.015,0.027,0.024,0.027,0.024l0.004,0.006l-0.022,0.044l-0.008-0.002
						c0,0-0.012-0.001-0.037-0.008l-0.01-0.004c-0.009-0.005-0.023-0.011-0.034-0.02c-0.007-0.006-0.016-0.013-0.022-0.02
						c-0.006-0.004-0.011-0.01-0.015-0.016c-0.002-0.003-0.005-0.006-0.007-0.01c-0.017-0.026-0.027-0.049-0.03-0.072
						c-0.004-0.015-0.005-0.031-0.004-0.043c-0.002-0.014,0.001-0.028,0.004-0.041L493.458,593.696L493.458,593.696z
						 M494.567,592.999c0.006-0.006,0.011-0.014,0.016-0.021c0.006-0.007,0.01-0.014,0.016-0.022
						c0.008-0.015,0.018-0.031,0.025-0.047c0.007-0.016,0.013-0.033,0.017-0.05c0.005-0.017,0.009-0.035,0.009-0.054
						c0.001-0.008,0.001-0.017,0.001-0.026c0.001-0.01,0-0.019-0.001-0.026c-0.001-0.019-0.006-0.036-0.01-0.053
						c-0.004-0.009-0.006-0.016-0.01-0.025l-0.012-0.026l0.026-0.015l0.016,0.024c0.006,0.01,0.01,0.019,0.014,0.029
						c0.008,0.019,0.014,0.039,0.019,0.059c0.001,0.01,0.003,0.02,0.004,0.031c0.001,0.01,0.004,0.021,0.004,0.03
						c0,0.021-0.001,0.042-0.005,0.063c-0.001,0.021-0.006,0.041-0.013,0.06c-0.004,0.021-0.013,0.04-0.022,0.059
						c-0.004,0.009-0.01,0.018-0.016,0.027c-0.005,0.009-0.01,0.018-0.016,0.027c-0.013,0.017-0.026,0.034-0.041,0.05l-0.002,0.003
						c-0.127,0.119-0.253,0.237-0.38,0.358l-0.092-0.108c0.142-0.103,0.281-0.209,0.419-0.312
						C494.544,593.023,494.555,593.012,494.567,592.999 M487.793,593.023l-0.013,0.1l-0.04,0.002l-0.043-0.26l0.034-0.021
						l0.484,0.339l-0.023,0.036L487.793,593.023L487.793,593.023z M487.61,594.165l-0.464-0.203l-0.042,0.188h-0.04l-0.019-0.358
						l0.033-0.018l0.552,0.358L487.61,594.165L487.61,594.165z M487.9,592.483l-0.009,0.098l-0.042,0.004l-0.044-0.26l0.031-0.023
						l0.353,0.257l-0.022,0.034L487.9,592.483L487.9,592.483z M488.128,593.756l-0.565-0.248l-0.02,0.159l-0.037,0.003l-0.039-0.326
						l0.033-0.024l0.65,0.401L488.128,593.756L488.128,593.756z M494.478,587.792c-0.067-0.011-0.133-0.02-0.197-0.029
						c-0.067-0.011-0.133-0.023-0.19-0.034c-0.038-0.005-0.073-0.013-0.107-0.021c-0.024-0.005-0.047-0.009-0.07-0.013l-0.073-0.014
						c-0.029-0.006-0.059-0.011-0.087-0.017c-0.062-0.013-0.119-0.024-0.166-0.035c-0.027-0.005-0.05-0.01-0.071-0.015l-0.1-0.023
						l0.01-0.05l0.101,0.012c0.022,0.002,0.045,0.005,0.073,0.008c0.049,0.006,0.105,0.013,0.168,0.021
						c0.05,0.007,0.102,0.015,0.159,0.023l0.044,0.005c0.044,0.006,0.089,0.013,0.135,0.02c0.075,0.013,0.153,0.023,0.235,0.034
						c0.051,0.008,0.101,0.015,0.152,0.022c0.051,0.007,0.105,0.015,0.155,0.022l0.042,0.007l0.189,0.03
						c0.085,0.011,0.164,0.024,0.236,0.036c0.036,0.006,0.069,0.012,0.103,0.017c0.056,0.008,0.107,0.019,0.152,0.026
						c0.033,0.006,0.061,0.012,0.086,0.015l0.101,0.018l-0.008,0.051l-0.01-0.001c0,0-0.034-0.002-0.091-0.005l-0.031-0.002
						c-0.057-0.004-0.128-0.01-0.213-0.019c-0.035-0.004-0.074-0.008-0.114-0.012c-0.072-0.007-0.146-0.014-0.227-0.024
						l-0.189-0.025C494.639,587.816,494.478,587.792,494.478,587.792 M486.116,590.008l-0.006-0.03l0.123-0.053l-0.066-0.117
						l0.024-0.021l0.249,0.192l-0.01,0.028H486.116L486.116,590.008z M486.708,584.982l-0.443,0.196l0.43,0.225l-0.011,0.03
						l-0.649-0.18c-0.027-0.007-0.049-0.027-0.057-0.055c-0.016-0.044,0.009-0.092,0.053-0.107l0.009-0.002l0.631-0.203
						c0.106-0.033,0.211-0.07,0.315-0.106l0.317-0.108l0.01,0.029l-0.301,0.142C486.91,584.89,486.81,584.937,486.708,584.982
						 M486.996,590.008l-0.005-0.03l0.122-0.053l-0.065-0.117l0.023-0.021l0.249,0.192l-0.01,0.028H486.996L486.996,590.008z"/>
				</g>
			</g>
		</g>
		<path id="path16871" style="fill:#110F0D;" d="M-112.257,414.445h-1.635c-3.497,0-4.758-1.595-6.096-4.941l-1.264-3.16h-0.374
			v8.472h23.044v-8.472h-0.371l-1.261,3.16c-1.338,3.346-2.567,4.941-6.096,4.941h-1.637v-21.447c0-1.674,0.522-3.272,3.087-3.68
			l0.927-0.148v-0.374h-12.341v0.374l0.933,0.148c2.559,0.408,3.084,2.006,3.084,3.68V414.445z M-90.66,414.816v-11.188
			c0.705,1.189,2.821,3.497,5.76,3.497c2.898,0,5.945-1.6,5.945-6.655v-9.034c0-0.964,0.374-1.745,1.603-2.079l0.705-0.185v-0.374
			h-8.701v0.374l0.71,0.185c1.221,0.334,1.598,1.115,1.598,2.079v8.664c0,3.418-1.974,4.647-3.905,4.647
			c-1.335,0-2.676-0.708-3.714-1.526v-11.784c0-0.964,0.371-1.745,1.597-2.079l0.705-0.185v-0.374h-8.698v0.374l0.708,0.185
			c1.226,0.334,1.597,1.115,1.597,2.079v20.745c0,0.964-0.371,1.743-1.597,2.077l-0.708,0.188v0.371H-90.66L-90.66,414.816z
			 M-66.909,407.125c4.681,0,7.323-3.126,7.323-6.806v-0.183h-11.71c-0.037-0.411-0.037-0.856-0.037-1.007
			c0-4.792,2.565-8.25,6.615-8.25c2.602,0,4.424,1.712,5.095,3.197l0.331-0.151c-0.294-1.598-2.713-5.682-7.617-5.682
			c-5.283,0-8.475,3.974-8.475,9.511C-75.384,402.663-72.191,407.125-66.909,407.125 M-71.296,400.544h7.545v1.187
			c0,2.49-0.705,4.98-3.198,4.98C-69.624,406.711-70.851,404.261-71.296,400.544"/>
		<path id="path16873" style="fill:#110F0D;" d="M-15.394,391.953c0-1.739,0.541-3.245,3.204-3.784l0.965-0.195v-0.194h-12.82v0.194
			l0.965,0.195c2.666,0.539,3.207,2.045,3.207,3.784v18.651c0,1.739-0.541,3.281-3.207,3.823l-0.965,0.194v0.191h12.82v-0.191
			l-0.965-0.194c-2.663-0.542-3.204-2.083-3.204-3.823V391.953z M15.65,409.176v-21.972h-0.267l-19.656,23.167l0.117-14.286
			c0.039-6.489,2.083-7.339,4.438-7.957l0.618-0.154v-0.194H-9.565v0.194l0.618,0.154c2.318,0.58,4.443,1.507,4.443,7.957v14.48
			l-0.465,0.5c-2.048,2.242-3.36,3.166-5.484,3.554v0.192h9.386c0.965-1.739,2.355-3.437,5.444-7.104l11.043-13.053l-0.117,13.904
			c-0.036,4.631-1.737,5.597-4.132,5.944l-0.889,0.118v0.192h24.292c10.04,0,15.175-6.332,15.175-13.398
			c0-7.068-5.135-13.633-15.175-13.633H21.059v0.194l0.924,0.154c2.743,0.465,3.246,2.048,3.246,3.825v17.223
			c0,4.132-2.124,5.444-4.788,5.444C17.774,414.62,15.65,413.308,15.65,409.176 M33.763,387.975c7.183,0,10.967,5.097,10.967,13.321
			c0,8.228-4.132,13.324-11.315,13.324h-3.708v-22.632c0-2.236,0.504-4.014,3.208-4.014H33.763z M64.076,387.975
			c4.325,0,6.604,1.236,8.458,4.402l1.813,3.049h0.193v-7.645H50.676v0.194l0.965,0.154c2.663,0.426,3.205,2.086,3.205,3.825v18.765
			c0,1.815-0.542,3.166-3.205,3.708l-0.965,0.194v0.191h22.823v-7.645h-0.194l-1.816,3.282c-1.815,3.322-4.322,4.172-8.998,4.172
			h-3.166v-12.782l1.931,0.038c4.134,0.076,5.523,0.271,6.835,4.44l0.426,1.354h0.192v-11.856h-0.192l-0.426,1.313
			c-1.351,4.208-2.664,4.363-6.835,4.439l-1.931,0.039v-9.731c0-2.315,0.849-3.9,3.593-3.9L64.076,387.975L64.076,387.975z
			 M89.368,414.812c6.062,0,10.312-3.322,10.312-8.072c0-4.788-4.249-8.107-10.312-8.107h-1.659v0.229h0.077
			c4.401,0,6.988,3.052,6.988,7.878c0,4.829-2.587,7.88-6.988,7.88h-1.389v-22.281c0-2.898,0.733-3.551,3.899-4.21l0.733-0.154
			v-0.194H77.707v0.194l0.965,0.195c2.664,0.539,3.205,2.045,3.205,3.784v18.689c0,1.735-0.541,3.242-3.205,3.784l-0.965,0.194
			v0.191L89.368,414.812L89.368,414.812z M114.16,387.975c4.325,0,6.603,1.236,8.457,4.402l1.816,3.049h0.191v-7.645h-23.865v0.194
			l0.966,0.154c2.667,0.426,3.207,2.086,3.207,3.825v18.765c0,1.815-0.541,3.166-3.207,3.708l-0.966,0.194v0.191h22.823v-7.645
			h-0.194l-1.815,3.282c-1.813,3.322-4.323,4.172-8.996,4.172h-3.166v-12.782l1.931,0.038c4.131,0.076,5.52,0.271,6.835,4.44
			l0.423,1.354h0.195v-11.856H118.6l-0.423,1.313c-1.354,4.208-2.666,4.363-6.835,4.439l-1.931,0.039v-9.731
			c0-2.315,0.847-3.9,3.59-3.9L114.16,387.975L114.16,387.975z M152.697,409.176v-21.972h-0.268l-19.657,23.167l0.118-14.286
			c0.036-6.489,2.084-7.339,4.44-7.957l0.618-0.154v-0.194h-10.467v0.194l0.618,0.154c2.319,0.58,4.44,1.507,4.44,7.957v14.48
			l-0.462,0.5c-2.048,2.242-3.36,3.166-5.485,3.554v0.192h9.384c0.966-1.739,2.359-3.437,5.444-7.104l11.047-13.053l-0.117,13.904
			c-0.038,4.631-1.736,5.597-4.132,5.944l-0.889,0.118v0.192h24.291c10.037,0,15.175-6.332,15.175-13.398
			c0-7.068-5.138-13.633-15.175-13.633h-13.514v0.194l0.926,0.154c2.742,0.465,3.242,2.048,3.242,3.825v17.223
			c0,4.132-2.124,5.444-4.787,5.444C154.82,414.62,152.697,413.308,152.697,409.176 M170.808,387.975
			c7.183,0,10.967,5.097,10.967,13.321c0,8.228-4.132,13.324-11.314,13.324h-3.708v-22.632c0-2.236,0.503-4.014,3.204-4.014H170.808
			L170.808,387.975z M201.123,387.975c4.323,0,6.604,1.236,8.454,4.402l1.819,3.049h0.192v-7.645h-23.865v0.194l0.966,0.154
			c2.666,0.426,3.205,2.086,3.205,3.825v18.765c0,1.815-0.539,3.166-3.205,3.708l-0.966,0.194v0.191h22.821v-7.645h-0.192
			l-1.816,3.282c-1.815,3.322-4.325,4.172-8.995,4.172h-3.167v-12.782l1.931,0.038c4.131,0.076,5.52,0.271,6.832,4.44l0.427,1.354
			h0.192v-11.856h-0.192l-0.427,1.313c-1.349,4.208-2.663,4.363-6.832,4.439l-1.931,0.039v-9.731c0-2.315,0.847-3.9,3.59-3.9
			L201.123,387.975L201.123,387.975z M239.35,407.785c-0.038,4.982-1.74,6.371-4.131,6.717l-0.889,0.118v0.192h10.387v-0.192
			l-0.888-0.118c-2.392-0.346-4.132-1.735-4.132-6.717v-20.581h-0.269l-19.655,23.167l0.116-14.286
			c0.037-6.489,2.086-7.339,4.439-7.957l0.618-0.154v-0.194h-10.465v0.194l0.618,0.154c2.316,0.58,4.44,1.507,4.44,7.957v14.48
			l-0.465,0.5c-2.046,2.242-3.358,3.166-5.482,3.554v0.192h9.385c0.964-1.739,2.357-3.437,5.447-7.104l11.041-13.053L239.35,407.785
			L239.35,407.785z M255.917,414.62h-1.701c-3.628,0-5.134-1.853-6.524-5.328l-1.315-3.284h-0.191v8.804h23.94v-8.804h-0.195
			l-1.311,3.284c-1.39,3.475-2.858,5.328-6.525,5.328h-1.701v-22.667c0-1.739,0.542-3.399,3.205-3.825l0.966-0.154v-0.194h-12.821
			v0.194l0.966,0.154c2.666,0.426,3.207,2.086,3.207,3.825V414.62z"/>
	</g>
</g>
</svg>
