<?xml version="1.0" encoding="utf-8"?>
<svg version="1.1" xmlns="http://www.w3.org/2000/svg" xmlns:xlink="http://www.w3.org/1999/xlink"
     viewBox="0 200 500 100">
<g id="g3066" transform="matrix(1.25,0,0,-1.25,-10.326023,723.27072)">
	<g id="g16889" transform="matrix(0.92303334,0,0,0.92303334,139.72482,8.1847414)">
		<g id="g16865" transform="translate(-528,-192)">
			<g>
				<defs>
					<path id="SVGID_1_" d="M488.386,579.61c7.684,0,13.914,6.229,13.914,13.912c0,7.685-6.23,13.914-13.914,13.914
						c-7.684,0-13.913-6.229-13.913-13.914C474.472,585.839,480.702,579.61,488.386,579.61"/>
				</defs>
				<clipPath id="SVGID_00000093145031256657433230000009030594595596370619_">
					<use xlink:href="#SVGID_1_"  style="overflow:visible;"/>
				</clipPath>
				<g id="g16867" style="clip-path:url(#SVGID_00000093145031256657433230000009030594595596370619_);">
					<path id="path16869" style="fill:#E41C29;" d="M488.786,592.204l0.206-0.042l-0.06-0.2l0.026-0.015l0.304,0.358l-0.014,0.025
						l-0.462-0.095L488.786,592.204z M488.82,592.77l0.027-0.015l0.266,0.287l-0.015,0.026l-0.386-0.064l-0.001-0.031l0.167-0.041
						L488.82,592.77L488.82,592.77z M487.941,590.519l-0.313,0.001l-0.008-0.03l0.123-0.054l-0.065-0.117l0.023-0.021l0.248,0.193
						L487.941,590.519L487.941,590.519z M488.606,591.044l-0.391-0.014l-0.004-0.031l0.159-0.063l-0.078-0.153l0.024-0.02
						l0.301,0.25L488.606,591.044L488.606,591.044z M488.922,591.388l0.217-0.032l-0.051-0.212l0.028-0.013l0.293,0.39l-0.016,0.024
						l-0.474-0.128L488.922,591.388L488.922,591.388z M487.883,589.829l-0.006-0.03l0.125-0.053l-0.065-0.117l0.023-0.02
						l0.247,0.192l-0.01,0.027L487.883,589.829L487.883,589.829z M489.838,589.803l0.211,0.231l-0.015,0.027l-0.309-0.054
						l-0.001-0.031l0.13-0.032l-0.042-0.127L489.838,589.803L489.838,589.803z M489.993,591.781l0.359,0.496l-0.017,0.024
						l-0.588-0.17l0.002-0.031l0.276-0.035l-0.06-0.271L489.993,591.781L489.993,591.781z M488.859,590.378h-0.392l-0.007-0.031
						l0.159-0.068l-0.085-0.15l0.024-0.02l0.311,0.24L488.859,590.378L488.859,590.378z M489.577,593.059l0.269-0.072l-0.098-0.26
						l0.026-0.016l0.425,0.441l-0.014,0.027l-0.605-0.088L489.577,593.059z M489.398,590.352l0.317,0.373l-0.016,0.026l-0.478-0.1
						v-0.031l0.213-0.044l-0.064-0.208L489.398,590.352L489.398,590.352z M490.377,594.125l0.023-0.02l0.249,0.192l-0.01,0.027
						h-0.313l-0.006-0.029l0.123-0.054L490.377,594.125L490.377,594.125z M489.525,593.6l0.024-0.02l0.386,0.3l-0.01,0.029
						l-0.49,0.001l-0.007-0.03l0.202-0.087L489.525,593.6L489.525,593.6z M491.133,591.174v-0.031l0.166-0.041l-0.057-0.161
						l0.026-0.016l0.267,0.287l-0.014,0.026L491.133,591.174L491.133,591.174z M492.3,593.933l0.026-0.02l0.247,0.192l-0.01,0.028
						h-0.313l-0.006-0.029l0.123-0.054L492.3,593.933z M489.177,589.768l-0.314,0.002l-0.004-0.03l0.122-0.053l-0.065-0.117
						l0.024-0.021l0.248,0.192L489.177,589.768z M491.423,594.077l0.023-0.02l0.309,0.24l-0.009,0.027h-0.393l-0.006-0.029
						l0.157-0.069L491.423,594.077L491.423,594.077z M490.823,591.992l0.214-0.041l-0.061-0.209l0.028-0.015l0.311,0.378
						l-0.016,0.026l-0.478-0.109L490.823,591.992L490.823,591.992z M491.124,594.781l1.593-0.002c0,0,0.503-0.19,1.163-0.455
						c0.305-0.122,0.465-0.397,0.44-0.708c0,0,0.262-0.262,0.407-0.427c0.173-0.2,0.193-0.477,0.056-0.659
						c-0.134-0.178-0.327-0.222-0.408-0.233l-0.014,0.03c0.104,0.105,0.062,0.273-0.03,0.407c-0.097,0.139-0.184,0.165-0.284,0.105
						c-0.043-0.027-0.1-0.069-0.1-0.069l0.247-0.395l-0.008-0.029c-0.198-0.054-0.47-0.012-0.596,0.149c-0.006,0-0.006,0-1.226,0
						l-0.001-0.031l0.682-0.124l0.021-0.047l-2.343-2.755l0.022-0.02l0.797,0.713l0.001-0.622l-0.073-0.188l0.074-0.436
						l-0.026-0.187c0,0,0.724-0.622,0.729-0.622h0.001c0,0,0.01-0.006,0.02-0.009c0.007-0.004,0.017-0.01,0.028-0.016
						c0.01-0.005,0.022-0.012,0.034-0.019c0.012-0.007,0.026-0.016,0.039-0.025c0.014-0.007,0.024-0.02,0.039-0.03
						c0.014-0.012,0.027-0.022,0.038-0.035c0.012-0.012,0.024-0.026,0.036-0.039c0.01-0.014,0.023-0.028,0.032-0.042
						c0.011-0.015,0.018-0.03,0.028-0.044c0.006-0.015,0.016-0.029,0.022-0.044c0.007-0.015,0.014-0.029,0.018-0.042
						c0.006-0.014,0.01-0.025,0.014-0.037c0.005-0.009,0.008-0.021,0.01-0.031c0.005-0.018,0.009-0.029,0.009-0.029l0.032-0.002
						c0,0,0.006,0.011,0.011,0.029c0.005,0.008,0.008,0.02,0.01,0.034c0.003,0.015,0.006,0.032,0.005,0.05v0.027
						c-0.001,0.01-0.004,0.02-0.004,0.03c-0.002,0.021-0.01,0.041-0.016,0.063c-0.007,0.022-0.017,0.044-0.028,0.064
						c-0.011,0.021-0.026,0.04-0.042,0.059c-0.016,0.017-0.031,0.035-0.051,0.05c-0.018,0.016-0.038,0.028-0.057,0.039
						c-0.021,0.01-0.039,0.02-0.06,0.025c-0.008,0.003-0.015,0.005-0.022,0.007c0.091,0.021,0.183,0.04,0.271,0.061h0.001
						c0-0.001,0-0.001,0.001-0.001c0.008-0.003,0.017-0.009,0.028-0.015c0.011-0.006,0.023-0.012,0.034-0.021
						c0.013-0.006,0.026-0.015,0.037-0.024c0.016-0.008,0.027-0.021,0.041-0.03c0.012-0.013,0.027-0.023,0.037-0.035
						c0.014-0.012,0.026-0.026,0.037-0.04c0.011-0.014,0.022-0.027,0.032-0.042c0.009-0.015,0.018-0.029,0.027-0.044
						c0.007-0.015,0.018-0.029,0.023-0.043c0.007-0.015,0.013-0.03,0.019-0.042c0.006-0.014,0.01-0.025,0.012-0.037
						c0.005-0.01,0.009-0.021,0.011-0.031c0.005-0.019,0.009-0.028,0.009-0.028l0.032-0.002c0,0,0.004,0.011,0.01,0.03
						c0.005,0.007,0.009,0.019,0.011,0.034c0.003,0.015,0.004,0.032,0.004,0.049v0.028c-0.001,0.01-0.002,0.019-0.002,0.029
						c-0.003,0.021-0.011,0.041-0.016,0.063c-0.008,0.021-0.017,0.042-0.029,0.062c-0.011,0.022-0.026,0.04-0.04,0.06
						c-0.017,0.017-0.033,0.036-0.051,0.05c-0.019,0.016-0.039,0.027-0.059,0.039c-0.018,0.009-0.036,0.019-0.056,0.024
						c1.283,0.278,2.277,0.465,2.277,0.465c1.297-0.767,1.215-0.721,1.484-0.869c0.494-0.274,0.473-1.082-0.461-1.082
						c-0.703,0-2.004-0.12-2.796-0.274l0.7,0.636l-0.022,0.022c0,0-0.693-0.503-1.516-0.914v-0.001
						c-0.446-0.179-1.118-0.472-1.81-0.78l1.023,0.968l-0.024,0.023c0,0-1.307-1.052-2.233-1.544
						c-0.556-0.252-1.037-0.472-1.306-0.595c-0.375-0.171-0.67-0.219-1.089-0.071c-0.666,0.236-0.926,0.328-1.491,0.544
						c-0.328,0.125-0.353,0.587-0.002,0.699c0.153,0.049,0.553,0.176,0.817,0.261c0.115-0.051,0.235-0.102,0.354-0.155
						c0.188-0.083,0.376-0.166,0.554-0.243c0.089-0.038,0.174-0.075,0.254-0.112c0.02-0.008,0.04-0.017,0.06-0.026
						c0.011-0.005,0.021-0.009,0.03-0.012l0.014-0.006v-0.001l0.003-0.001l0.001,0l0.007-0.004c0.038-0.022,0.064-0.039,0.093-0.063
						c0.054-0.046,0.09-0.101,0.11-0.155c0.021-0.055,0.024-0.106,0.022-0.148c-0.001-0.042-0.011-0.076-0.017-0.099
						c-0.007-0.021-0.009-0.033-0.009-0.033l0.035-0.015c0,0,0.005,0.013,0.016,0.035c0.009,0.024,0.021,0.06,0.027,0.106
						c0.005,0.047,0.006,0.107-0.012,0.172c-0.018,0.065-0.058,0.135-0.117,0.194c-0.028,0.027-0.066,0.06-0.099,0.08l-0.009,0.004
						l-0.002,0.003l-0.006,0.004l-0.014,0.007c-0.009,0.005-0.018,0.012-0.027,0.016c-0.019,0.011-0.038,0.022-0.057,0.033
						c-0.077,0.044-0.158,0.091-0.242,0.137c-0.166,0.097-0.344,0.199-0.524,0.301c-0.394,0.227-0.79,0.453-1.064,0.61
						c-0.003,0.001-0.004,0.001-0.004,0.002c0,0,1.383,0.435,3.148,0.92l0.284-0.125l0.009,0.018l0.005,0.007l-0.167,0.133
						l-0.437,0.352l-0.216,0.075l-0.144,0.395l-0.196,0.111l-0.193,0.88l-0.031-0.006l0.079-0.961l-0.549-0.308v1.271l-0.031,0.005
						l-0.159-1.341l-0.739-0.143l0.252,1.457l-0.032,0.006l-0.453-1.489l-0.724-0.049l0.525,1.555l-0.031,0.014l-0.773-1.585h-0.001
						l-0.715-0.046l0.834,1.64l-0.027,0.016l-1.142-1.69l-0.761-0.119l1.235,1.821l-0.024,0.019l-2.08-2.417l-0.112,0.075
						l1.863,2.921l2.853,1.066c0,0,0.192,0.084,0.303,0.131c0.055,0.024,0.112,0.047,0.174,0.078c0.03,0.014,0.059,0.033,0.089,0.05
						c0.028,0.017,0.056,0.036,0.084,0.055c0.054,0.041,0.107,0.083,0.153,0.132l0.035,0.034c0.01,0.012,0.021,0.025,0.032,0.037
						c0.022,0.023,0.04,0.049,0.06,0.074c0.018,0.025,0.034,0.052,0.052,0.077c0.014,0.025,0.029,0.052,0.044,0.076
						c0.013,0.025,0.025,0.051,0.036,0.074c0.011,0.025,0.021,0.049,0.031,0.072c0.017,0.047,0.031,0.09,0.041,0.129
						c0.011,0.039,0.017,0.074,0.023,0.102c0.005,0.028,0.008,0.05,0.01,0.065c0.001,0.015,0.003,0.023,0.003,0.023l-0.033,0.006
						c0,0-0.002-0.008-0.006-0.023c-0.003-0.015-0.008-0.038-0.015-0.064c-0.007-0.027-0.016-0.059-0.03-0.094
						c-0.011-0.037-0.029-0.078-0.047-0.12c-0.011-0.021-0.022-0.043-0.034-0.065c-0.012-0.022-0.027-0.044-0.04-0.068
						c-0.016-0.022-0.031-0.045-0.048-0.068c-0.018-0.022-0.034-0.045-0.053-0.067c-0.02-0.022-0.039-0.044-0.061-0.064
						l-0.034-0.032l-0.033-0.03c-0.046-0.04-0.097-0.075-0.15-0.108c-0.027-0.016-0.054-0.031-0.08-0.044
						c-0.029-0.013-0.055-0.027-0.083-0.038c-0.055-0.022-0.115-0.043-0.171-0.063c-0.115-0.04-0.22-0.078-0.312-0.111
						c-0.09-0.033-0.166-0.059-0.219-0.078l-0.183,0.37l0.37,0.326l-0.018,0.025l-0.989-0.607l-0.232,0.466l1.337,0.99l-0.022,0.028
						l-2.033-1.216l-0.186,0.491l1.916,1.28l-0.016,0.026l-2.469-1.355l-0.117,0.461l2.089,1.327l-0.016,0.027l-2.557-1.304
						l-0.074,0.545v0l2.109,1.137l-0.013,0.027l-2.611-1.088l-0.011,0.532l2.131,0.832l-0.01,0.032l-2.587-0.708l0.031,0.582
						l1.966,0.451l-0.006,0.03l-2.516-0.344l0.081,0.502l1.852,0.199v0.032l-2.588-0.042l0.039,0.424l2.062,0.014l0.003,0.031
						l-3.705,0.271l-0.006,0.034l0.6,0.209l-0.001,0.029l-1.534,0.585l0.003,0.033l0.614,0.049l0.006,0.032l-1.325,0.818
						l0.009,0.045l0.928-0.053l0.011,0.029l-1.069,1.003l0.013,0.031l0.503-0.096l0.015,0.024l-0.502,0.632l-0.311,0.895
						l0.031,0.016l0.48-0.605l1.086-0.625l0.023,0.022l-0.701,1.029l-0.261,1.149l0.031,0.014l0.566-0.849l1.097-0.893l0.021,0.022
						l-0.67,1.217l-0.231,1.487l0.037,0.007l0.655-1.266l1.374-1.142l0.026,0.021l-0.946,1.52l-0.214,1.823l0.031,0.009l0.59-1.616
						l1.949-1.755l2.46-1.258l2.697-3.749l1.05-0.885l0.025,0.024l-0.46,0.599h0.005l0.001,0.001l-0.006-0.001l1.082,0.279
						l-0.002,0.033l-0.939,0.055l-0.004,0.032l1.378,0.245l-0.004,0.031l-1.72,0.131l-0.001,0.032l2.192,0.368l0.871-0.206
						l0.01,0.03l-0.832,0.381l-1.359-0.029l-0.004,0.032l1.451,0.273l0.899-0.307l0.012,0.029l-0.815,0.517l-0.966,0.04v0.034
						l1.079,0.167l0.947-0.442l0.017,0.028l-0.779,0.732l-0.848,0.004l-0.004,0.034l1.032,0.231l0.917-0.754l0.022,0.022
						l-0.705,1.03l-0.768,0.144l0.004,0.032l0.971,0.059l0.876-1.065l0.026,0.017l-0.628,1.325l-0.84,0.274l0.006,0.033l1.071-0.088
						l0.813-1.398l0.028,0.013l-0.539,1.64l-1.054,0.377l0.007,0.032l1.275-0.229l0.71-1.686l0.032,0.008l-0.465,1.881l-1.131,0.641
						l0.016,0.031l1.344-0.511l0.64-1.885l0.032,0.007l-0.4,2.058l-1.229,0.895l0.018,0.029l1.431-0.784l0.56-1.983l0.033,0.008
						l-0.352,2.123l-1.287,1.142l0.02,0.024l1.505-1.026l0.436-2.021l0.03,0.006l-0.221,2.148l-1.283,1.389l0.022,0.026l1.487-1.272
						l0.328-1.958l0.033,0.003l-0.144,2.057l-1.215,1.588l0.023,0.021l1.431-1.495l0.225-1.694l0.032,0.002l-0.073,1.791
						l-1.111,1.702l0.027,0.02l1.285-1.63l0.171-1.216l0.033,0.003l-0.06,1.301l-0.791,1.765l0.028,0.016l0.981-1.672l0.09-0.686
						l0.031,0.003l0.048,0.781l-0.409,1.661l0.03,0.012l0.563-1.394h0.032l0.346,1.392l0.034-0.008l-0.113-1.37l0.031-0.009
						l0.953,1.37l0.027-0.016l-0.617-1.237l0.021-0.023l1.455,1.039l0.018-0.026l-2.218-2.995c0,0-0.72-1.92-0.951-2.561
						c-0.047-0.127-0.128-0.209-0.249-0.26c-0.069-0.028-1.8-0.719-1.8-0.719l-0.475-0.419l-1.586-0.187L491.124,594.781
						L491.124,594.781z M488.689,606.855c-7.53,0-13.635-6.105-13.635-13.636c0-7.531,6.105-13.636,13.635-13.636
						c7.53,0,13.636,6.105,13.636,13.636C502.325,600.75,496.219,606.855,488.689,606.855 M490.695,592.904l0.261-0.055
						l-0.082-0.253l0.028-0.015l0.385,0.444l-0.014,0.026l-0.576-0.114L490.695,592.904L490.695,592.904z M491.768,591.789
						l0.13-0.032l-0.046-0.126l0.027-0.017l0.212,0.231l-0.013,0.026l-0.309-0.053L491.768,591.789L491.768,591.789z
						 M489.695,587.487c0.014-0.006,0.026-0.015,0.039-0.024c0.013-0.007,0.024-0.019,0.04-0.029
						c0.012-0.012,0.027-0.022,0.038-0.035c0.005-0.003,0.008-0.006,0.01-0.01c0.009-0.008,0.018-0.019,0.027-0.028
						c0.011-0.014,0.022-0.027,0.032-0.042c0.011-0.014,0.02-0.029,0.029-0.043c0.007-0.015,0.018-0.029,0.023-0.044
						c0.007-0.013,0.014-0.027,0.018-0.041c0.008-0.014,0.011-0.025,0.015-0.037c0.005-0.011,0.009-0.02,0.011-0.031
						c0.006-0.018,0.009-0.028,0.009-0.028l0.032-0.001c0,0,0.005,0.01,0.011,0.029c0.004,0.007,0.006,0.02,0.007,0.034
						c0.003,0.015,0.005,0.032,0.004,0.05c-0.001,0.008-0.001,0.018-0.001,0.027s-0.001,0.019-0.004,0.029
						c-0.003,0.022-0.01,0.041-0.016,0.063c-0.009,0.021-0.018,0.042-0.031,0.062c-0.006,0.014-0.017,0.026-0.026,0.038l-0.016,0.02
						c-0.018,0.018-0.034,0.035-0.053,0.05c-0.02,0.016-0.039,0.027-0.059,0.038c-0.021,0.01-0.041,0.018-0.06,0.023
						c-0.009,0.003-0.021,0.006-0.029,0.01c-0.004,0.001-0.011,0.001-0.016,0.002c-0.004,0.001-0.007,0.001-0.011,0.001
						c-0.017,0.004-0.032,0.004-0.047,0.003c-0.014,0.001-0.027-0.001-0.037-0.002c-0.019-0.003-0.029-0.006-0.029-0.006
						l-0.002-0.03v-0.002c0,0,0.009-0.005,0.027-0.013c0.008-0.003,0.017-0.008,0.028-0.015
						C489.671,587.501,489.684,587.495,489.695,587.487 M490.933,586.991c-0.033-0.011-0.071-0.021-0.112-0.033
						c-0.073-0.022-0.161-0.046-0.257-0.075c-0.077-0.023-0.159-0.047-0.245-0.074c-0.044-0.013-0.089-0.026-0.135-0.04
						l-0.138-0.047c-0.188-0.065-0.388-0.135-0.588-0.204c-0.127-0.044-0.254-0.093-0.376-0.14
						c-0.069-0.027-0.139-0.052-0.207-0.079c-0.062-0.023-0.121-0.047-0.181-0.071c-0.028-0.011-0.057-0.021-0.085-0.034
						c-0.064-0.025-0.129-0.052-0.188-0.076l-0.05-0.02c-0.096-0.04-0.181-0.076-0.253-0.107c-0.036-0.016-0.07-0.031-0.098-0.043
						c-0.087-0.036-0.135-0.057-0.135-0.057l-0.009-0.005l0.021-0.048l0.009,0.003c0,0,0.049,0.017,0.136,0.048
						c0.031,0.011,0.066,0.024,0.102,0.036c0.074,0.026,0.161,0.057,0.259,0.093l0.072,0.027c0.054,0.02,0.11,0.041,0.168,0.061
						l0.084,0.03c0.059,0.022,0.122,0.043,0.185,0.066c0.066,0.024,0.133,0.05,0.204,0.075c0.123,0.046,0.249,0.093,0.378,0.137
						c0.198,0.071,0.397,0.142,0.585,0.209c0.089,0.031,0.18,0.065,0.269,0.095c0.064,0.022,0.124,0.042,0.183,0.062l0.06,0.02
						c0.096,0.034,0.183,0.063,0.253,0.09c0.042,0.014,0.077,0.026,0.108,0.037l0.146,0.054l-0.014,0.05L490.933,586.991
						L490.933,586.991z M488.287,586.531l0.112,0.037c0.146,0.046,0.289,0.094,0.426,0.141c0.055,0.018,0.106,0.036,0.156,0.053
						l0.041,0.014l0.176,0.06c0.074,0.024,0.14,0.046,0.193,0.065c0.026,0.009,0.049,0.018,0.069,0.024
						c0.065,0.023,0.1,0.037,0.1,0.037l0.011,0.004l-0.016,0.049l-0.01-0.002c0,0-0.038-0.008-0.102-0.024l-0.052-0.013
						c-0.06-0.014-0.134-0.031-0.219-0.054l-0.181-0.047c-0.044-0.012-0.09-0.027-0.137-0.041l-0.061-0.019
						c-0.127-0.039-0.27-0.085-0.431-0.138c-0.118-0.039-0.232-0.081-0.343-0.12l-0.083-0.029l-0.041-0.015
						c-0.12-0.043-0.231-0.084-0.327-0.122c-0.044-0.016-0.083-0.032-0.117-0.047l-0.031-0.012l-0.113-0.045
						c-0.062-0.026-0.097-0.04-0.097-0.04l-0.01-0.005l0.019-0.048c0,0,0.047,0.014,0.112,0.034
						c0.023,0.007,0.048,0.014,0.076,0.024l0.082,0.025c0.033,0.01,0.07,0.022,0.107,0.034c0.067,0.023,0.143,0.045,0.222,0.071
						c0.05,0.015,0.101,0.031,0.152,0.047C488.073,586.462,488.179,586.495,488.287,586.531 M490.51,590.457l-0.001-0.031
						l0.167-0.041l-0.056-0.161l0.026-0.016l0.266,0.287l-0.014,0.027L490.51,590.457L490.51,590.457z M490.228,590.855l0.341,0.508
						l-0.017,0.023l-0.58-0.191l0.002-0.031l0.276-0.025l-0.05-0.273L490.228,590.855L490.228,590.855z M492.041,592.694
						l-0.39-0.035l-0.004-0.03l0.163-0.055l-0.068-0.156l0.023-0.018l0.289,0.266L492.041,592.694L492.041,592.694z
						 M490.222,588.338l-0.805,0.986l-0.042-0.018l0.207-1.172l0.423-0.492c0,0,0.014-0.006,0.022-0.011
						c0.008-0.004,0.02-0.009,0.03-0.015c0.01-0.005,0.022-0.012,0.034-0.019c0.012-0.007,0.027-0.015,0.04-0.024
						c0.013-0.007,0.026-0.02,0.04-0.03c0.011-0.011,0.026-0.021,0.038-0.034c0.012-0.012,0.024-0.026,0.036-0.039
						c0.011-0.014,0.023-0.027,0.032-0.042c0.012-0.013,0.019-0.029,0.029-0.043c0.008-0.015,0.018-0.029,0.023-0.043
						c0.007-0.015,0.014-0.028,0.019-0.042c0.006-0.014,0.01-0.025,0.015-0.036c0.004-0.011,0.008-0.022,0.009-0.031
						c0.006-0.018,0.011-0.029,0.011-0.029h0.03c0,0,0.004,0.01,0.011,0.027c0.002,0.009,0.007,0.021,0.009,0.037
						c0.002,0.014,0.005,0.031,0.004,0.049v0.027c-0.003,0.009-0.004,0.019-0.005,0.029c-0.003,0.021-0.011,0.041-0.017,0.062
						c-0.009,0.021-0.017,0.043-0.031,0.062c-0.01,0.022-0.027,0.04-0.042,0.059c-0.016,0.018-0.034,0.035-0.052,0.049
						c-0.018,0.016-0.039,0.027-0.057,0.039c-0.022,0.008-0.04,0.018-0.06,0.024c-0.011,0.003-0.02,0.005-0.029,0.007
						c-0.001,0-0.001,0-0.001,0c0.01,0.003,0.021,0.005,0.032,0.009c0.079,0.019,0.157,0.039,0.236,0.06
						c0.004-0.002,0.006-0.004,0.011-0.006c0.01-0.003,0.02-0.008,0.029-0.014c0.011-0.006,0.022-0.011,0.034-0.018
						c0.014-0.006,0.026-0.016,0.039-0.024c0.015-0.007,0.027-0.02,0.04-0.03c0.012-0.011,0.028-0.022,0.039-0.034
						c0.015-0.011,0.024-0.026,0.038-0.038c0.01-0.014,0.022-0.027,0.032-0.042c0.011-0.015,0.019-0.03,0.028-0.043
						c0.008-0.015,0.018-0.029,0.023-0.044c0.007-0.014,0.016-0.027,0.02-0.041c0.007-0.014,0.011-0.024,0.014-0.036
						c0.005-0.011,0.01-0.022,0.012-0.031c0.004-0.019,0.009-0.03,0.009-0.03h0.031c0,0,0.005,0.01,0.011,0.028
						c0.002,0.008,0.007,0.021,0.007,0.035c0.004,0.014,0.005,0.031,0.004,0.049v0.028c-0.001,0.009-0.002,0.019-0.004,0.029
						c-0.002,0.022-0.01,0.041-0.017,0.063c-0.008,0.021-0.016,0.043-0.03,0.062c-0.01,0.021-0.027,0.04-0.042,0.06
						c-0.017,0.016-0.033,0.034-0.054,0.048c-0.017,0.016-0.037,0.027-0.057,0.039c-0.021,0.009-0.04,0.018-0.06,0.023
						c-0.004,0.002-0.008,0.003-0.011,0.003c0.221,0.056,0.442,0.109,0.665,0.162l-0.72,0.401L490.222,588.338L490.222,588.338z
						 M491.568,593.554l0.202-0.087l-0.106-0.191l0.024-0.02l0.387,0.3l-0.013,0.028l-0.488,0L491.568,593.554L491.568,593.554z
						 M484.477,598.017l-0.915-0.466l-0.05,0.271l-0.044-0.004l-0.005-0.45l0.037-0.017l0.999,0.631L484.477,598.017
						L484.477,598.017z M485.353,596.915l-1.279-0.694l-0.05,0.271l-0.042-0.005l-0.007-0.45l0.035-0.019l1.365,0.86
						L485.353,596.915L485.353,596.915z M484.935,597.48l-1.211-0.639l-0.049,0.27l-0.041-0.006l-0.006-0.449l0.033-0.016
						l1.295,0.804L484.935,597.48z M486.825,595.271l-0.913-0.466l-0.05,0.265l-0.041-0.005l-0.006-0.443l0.032-0.017l1,0.63
						L486.825,595.271L486.825,595.271z M486.328,595.815l-1.103-0.573l-0.049,0.271l-0.042-0.006l-0.006-0.447l0.032-0.021
						l1.192,0.74L486.328,595.815z M485.835,596.348l-1.253-0.654l-0.05,0.271l-0.042-0.005l-0.005-0.45l0.036-0.017l1.336,0.819
						L485.835,596.348L485.835,596.348z M482.868,597.039l0.013,0.052l-2.812,0.771l-1.266,1.031l-0.036-0.034l1.173-1.188
						L482.868,597.039z M482.947,597.612l0.019,0.051l-2.382,0.769l-1.177,1.106l-0.034-0.038l1.055-1.247L482.947,597.612
						L482.947,597.612z M490.559,593.755l0.201-0.087l-0.107-0.191l0.023-0.021l0.387,0.299l-0.009,0.029l-0.489,0.002
						L490.559,593.755L490.559,593.755z M480.067,596.468l1.036-0.302l2.052-0.188l0.006,0.056l-3.083,0.485L480.067,596.468
						L480.067,596.468z M480.334,600.003l-0.038-0.03l0.861-1.186l2.082-0.691l0.021,0.049l-1.93,0.795L480.334,600.003
						L480.334,600.003z M487.24,594.701l-0.654-0.312l-0.051,0.247l-0.041-0.002l-0.006-0.428l0.038-0.016l0.738,0.475
						L487.24,594.701L487.24,594.701z M482.906,596.58l-3.896,0.804l-0.015-0.05l1.01-0.37l2.889-0.439L482.906,596.58
						L482.906,596.58z M484.05,598.368l0.024,0.049l-1.802,0.866l-1.097,1.46l-0.04-0.028l0.98-1.599L484.05,598.368L484.05,598.368
						z M491.663,587.168c0,0,0.019,0.002,0.053,0.007c0.012,0.002,0.023,0.004,0.036,0.006c0.028,0.004,0.062,0.01,0.1,0.016
						c0.065,0.012,0.128,0.024,0.191,0.038c0.059,0.012,0.122,0.026,0.185,0.041l0.037,0.009c0.071,0.015,0.145,0.031,0.211,0.048
						c0.074,0.018,0.138,0.035,0.189,0.05c0.037,0.008,0.068,0.019,0.095,0.026c0.015,0.005,0.026,0.008,0.038,0.012
						c0.032,0.011,0.05,0.017,0.05,0.017l0.009,0.003l-0.01,0.048l-0.01-0.001c0,0-0.019-0.001-0.053-0.005
						c-0.011-0.002-0.024-0.003-0.039-0.005c-0.028-0.003-0.061-0.008-0.098-0.014c-0.056-0.008-0.121-0.018-0.193-0.031
						c-0.069-0.014-0.146-0.029-0.219-0.044c-0.134-0.033-0.282-0.073-0.405-0.111c-0.037-0.012-0.072-0.024-0.1-0.034l-0.03-0.009
						c-0.031-0.011-0.05-0.018-0.05-0.018l-0.009-0.003l0.011-0.049L491.663,587.168L491.663,587.168z M493.314,587.901
						c0,0,0.024,0.001,0.066,0.007c0.013,0.002,0.027,0.003,0.046,0.005c0.035,0.004,0.078,0.009,0.126,0.017
						c0.158,0.023,0.349,0.055,0.525,0.088l0.045,0.008c0.079,0.016,0.158,0.031,0.232,0.049c0.038,0.007,0.074,0.014,0.11,0.022
						c0.047,0.01,0.091,0.018,0.134,0.027c0.046,0.01,0.089,0.021,0.124,0.03l0.046,0.012c0.041,0.01,0.064,0.016,0.064,0.016
						l0.009,0.002l-0.008,0.05h-0.01c0,0-0.024-0.001-0.066-0.006l-0.041-0.004c-0.037-0.003-0.083-0.008-0.134-0.015l-0.013-0.002
						c-0.07-0.01-0.149-0.019-0.231-0.033c-0.088-0.015-0.182-0.033-0.273-0.05l-0.008-0.001c-0.17-0.033-0.36-0.073-0.52-0.11
						c-0.046-0.01-0.086-0.022-0.12-0.03c-0.017-0.006-0.036-0.009-0.05-0.013c-0.04-0.011-0.064-0.017-0.064-0.017l-0.011-0.003
						l0.011-0.05L493.314,587.901L493.314,587.901z M491.896,588.051c0.011-0.006,0.022-0.012,0.034-0.02
						c0.012-0.006,0.026-0.016,0.038-0.025c0.013-0.008,0.026-0.02,0.04-0.03c0.005-0.006,0.013-0.013,0.021-0.018
						c0.006-0.005,0.012-0.011,0.018-0.016c0.012-0.013,0.023-0.027,0.036-0.04c0.009-0.014,0.022-0.028,0.031-0.043
						c0.01-0.015,0.019-0.029,0.027-0.043c0.007-0.016,0.017-0.03,0.023-0.044c0.006-0.014,0.014-0.028,0.017-0.042
						c0.006-0.014,0.009-0.026,0.015-0.036c0.004-0.012,0.009-0.022,0.01-0.032c0.006-0.019,0.008-0.03,0.008-0.03l0.033-0.001
						c0,0,0.004,0.01,0.01,0.028c0.004,0.009,0.008,0.02,0.009,0.035c0.002,0.015,0.005,0.032,0.005,0.049v0.028
						c-0.001,0.008-0.003,0.019-0.005,0.03c0,0.02-0.008,0.041-0.015,0.063c-0.007,0.02-0.016,0.042-0.028,0.062
						c-0.011,0.022-0.027,0.041-0.041,0.06c-0.004,0.003-0.006,0.007-0.01,0.01c-0.013,0.015-0.027,0.029-0.041,0.04
						c-0.017,0.016-0.039,0.027-0.056,0.04c-0.021,0.009-0.041,0.019-0.062,0.025c-0.009,0.002-0.017,0.006-0.027,0.008
						c-0.008,0.002-0.016,0.003-0.023,0.004c-0.001,0.001-0.002,0.001-0.005,0.001c-0.016,0.005-0.032,0.005-0.046,0.005
						c-0.013,0.001-0.027,0-0.037-0.002c-0.021-0.004-0.031-0.006-0.031-0.006l-0.002-0.024v-0.007c0,0,0.009-0.004,0.025-0.013
						C491.875,588.064,491.883,588.058,491.896,588.051 M493.403,592.782c0.001-0.009,0.004-0.019,0.006-0.027
						c0.004-0.01,0.005-0.018,0.009-0.025c0.005-0.007,0.009-0.015,0.012-0.02c0.003-0.007,0.007-0.012,0.009-0.017
						c0.005-0.004,0.009-0.008,0.013-0.012c0.014-0.015,0.023-0.022,0.023-0.022l0.019,0.015c0,0-0.001,0.01-0.005,0.027
						c0,0.003,0,0.007-0.001,0.012v0.016c-0.001,0.009-0.001,0.022,0.001,0.034c0,0.013,0.004,0.025,0.008,0.037
						c0.001,0.005,0.005,0.013,0.007,0.018c0.005,0.005,0.006,0.013,0.01,0.019c0.007,0.011,0.014,0.024,0.022,0.03
						c0.003,0.004,0.004,0.008,0.014,0.015l0.011,0.011l0.005,0.004h0.001c0.012,0.007,0.023,0.016,0.035,0.02
						c0.013,0.006,0.028,0.008,0.041,0.011c0.005,0.003,0.013,0.001,0.02,0.003c0.006,0.001,0.013,0.001,0.019,0
						c0.006,0,0.012-0.001,0.019-0.001c0.006-0.001,0.011-0.002,0.017-0.004c0.014-0.002,0.022-0.005,0.032-0.008
						c0.005-0.002,0.009-0.004,0.014-0.005c0.004-0.002,0.008-0.005,0.012-0.008c0.016-0.009,0.025-0.014,0.025-0.014l0.026,0.021
						c0,0-0.004,0.011-0.011,0.027c-0.001,0.005-0.004,0.008-0.007,0.013c-0.004,0.006-0.009,0.011-0.012,0.016
						c-0.006,0.005-0.011,0.012-0.017,0.018c-0.006,0.007-0.013,0.012-0.022,0.017c-0.007,0.004-0.014,0.011-0.023,0.016
						c-0.009,0.004-0.019,0.007-0.029,0.012c-0.01,0.004-0.021,0.007-0.031,0.009c-0.011,0.001-0.024,0.004-0.035,0.004
						c-0.025,0-0.051-0.002-0.075-0.01c-0.024-0.006-0.046-0.021-0.069-0.034l-0.006-0.004l-0.001-0.002l-0.002-0.002l-0.006-0.006
						l-0.011-0.01c-0.006-0.005-0.016-0.017-0.026-0.028c-0.018-0.023-0.026-0.046-0.036-0.068
						c-0.004-0.023-0.009-0.046-0.008-0.067C493.402,592.802,493.402,592.793,493.403,592.782 M493.458,593.696l0.002-0.011
						l0.003-0.009l0.01-0.022c0.004-0.011,0.017-0.03,0.028-0.044c0.006-0.009,0.012-0.016,0.018-0.021
						c0.008-0.005,0.013-0.011,0.018-0.016c0.012-0.009,0.024-0.015,0.034-0.021l0.011-0.005c0.032-0.012,0.06-0.019,0.087-0.019
						c0.005,0,0.009,0.001,0.017,0.001c0.016,0.001,0.031,0.002,0.045,0.008l0.022,0.007l0.006,0.002l0.011,0.005l0.006,0.004
						c0.015,0.009,0.054,0.037,0.066,0.059c0.016,0.02,0.027,0.043,0.032,0.072l0.003,0.009c0.001,0.008,0.002,0.016,0.002,0.025
						c0,0.01-0.001,0.019-0.001,0.029c0,0.014-0.004,0.026-0.008,0.036l-0.003,0.01c-0.012,0.023-0.02,0.034-0.021,0.034
						l-0.005,0.007l-0.038-0.014v-0.008c0,0-0.002-0.012-0.002-0.029c0-0.004-0.001-0.007-0.003-0.011
						c-0.001-0.006-0.001-0.013-0.003-0.02c-0.002-0.005-0.006-0.01-0.007-0.016c-0.003-0.004-0.004-0.007-0.006-0.011l-0.005-0.008
						c0-0.002-0.002-0.004-0.006-0.007c-0.001-0.002-0.003-0.004-0.005-0.007c-0.002-0.003-0.009-0.007-0.015-0.012
						c-0.004-0.003-0.006-0.005-0.012-0.007l-0.006-0.003l-0.001-0.002l-0.016-0.006c-0.007-0.002-0.02-0.004-0.037-0.004
						c-0.011,0-0.025,0.003-0.036,0.008c-0.004,0.002-0.007,0.004-0.011,0.006c-0.003,0.001-0.006,0.003-0.006,0.003
						c-0.004,0.004-0.007,0.006-0.011,0.008c-0.001,0.001-0.002,0.002-0.003,0.003c-0.003,0.004-0.004,0.006-0.006,0.007
						c-0.004,0.002-0.005,0.003-0.007,0.009l-0.01,0.015v0.004v0.001c-0.003,0.006-0.006,0.012-0.008,0.021
						c-0.001,0.005-0.001,0.01-0.001,0.016v0.006v0.013c0,0.002,0.001,0.005,0.001,0.009c0,0.003,0,0.006,0.003,0.009
						c0.001,0.003,0.002,0.006,0.002,0.01c0.001,0.003,0.002,0.006,0.003,0.007l0.006,0.016c0.004,0.004,0.006,0.008,0.009,0.012
						c0.004,0.004,0.005,0.008,0.005,0.008c0.018,0.015,0.027,0.024,0.027,0.024l0.004,0.006l-0.022,0.044l-0.008-0.002
						c0,0-0.012-0.001-0.037-0.008l-0.01-0.004c-0.009-0.005-0.023-0.011-0.034-0.02c-0.007-0.006-0.016-0.013-0.022-0.02
						c-0.006-0.004-0.011-0.01-0.015-0.016c-0.002-0.003-0.005-0.006-0.007-0.01c-0.017-0.026-0.027-0.049-0.03-0.072
						c-0.004-0.015-0.005-0.031-0.004-0.043c-0.002-0.014,0.001-0.028,0.004-0.041L493.458,593.696L493.458,593.696z
						 M494.567,592.999c0.006-0.006,0.011-0.014,0.016-0.021c0.006-0.007,0.01-0.014,0.016-0.022
						c0.008-0.015,0.018-0.031,0.025-0.047c0.007-0.016,0.013-0.033,0.017-0.05c0.005-0.017,0.009-0.035,0.009-0.054
						c0.001-0.008,0.001-0.017,0.001-0.026c0.001-0.01,0-0.019-0.001-0.026c-0.001-0.019-0.006-0.036-0.01-0.053
						c-0.004-0.009-0.006-0.016-0.01-0.025l-0.012-0.026l0.026-0.015l0.016,0.024c0.006,0.01,0.01,0.019,0.014,0.029
						c0.008,0.019,0.014,0.039,0.019,0.059c0.001,0.01,0.003,0.02,0.004,0.031c0.001,0.01,0.004,0.021,0.004,0.03
						c0,0.021-0.001,0.042-0.005,0.063c-0.001,0.021-0.006,0.041-0.013,0.06c-0.004,0.021-0.013,0.04-0.022,0.059
						c-0.004,0.009-0.01,0.018-0.016,0.027c-0.005,0.009-0.01,0.018-0.016,0.027c-0.013,0.017-0.026,0.034-0.041,0.05l-0.002,0.003
						c-0.127,0.119-0.253,0.237-0.38,0.358l-0.092-0.108c0.142-0.103,0.281-0.209,0.419-0.312
						C494.544,593.023,494.555,593.012,494.567,592.999 M487.793,593.023l-0.013,0.1l-0.04,0.002l-0.043-0.26l0.034-0.021
						l0.484,0.339l-0.023,0.036L487.793,593.023L487.793,593.023z M487.61,594.165l-0.464-0.203l-0.042,0.188h-0.04l-0.019-0.358
						l0.033-0.018l0.552,0.358L487.61,594.165L487.61,594.165z M487.9,592.483l-0.009,0.098l-0.042,0.004l-0.044-0.26l0.031-0.023
						l0.353,0.257l-0.022,0.034L487.9,592.483L487.9,592.483z M488.128,593.756l-0.565-0.248l-0.02,0.159l-0.037,0.003l-0.039-0.326
						l0.033-0.024l0.65,0.401L488.128,593.756L488.128,593.756z M494.478,587.792c-0.067-0.011-0.133-0.02-0.197-0.029
						c-0.067-0.011-0.133-0.023-0.19-0.034c-0.038-0.005-0.073-0.013-0.107-0.021c-0.024-0.005-0.047-0.009-0.07-0.013l-0.073-0.014
						c-0.029-0.006-0.059-0.011-0.087-0.017c-0.062-0.013-0.119-0.024-0.166-0.035c-0.027-0.005-0.05-0.01-0.071-0.015l-0.1-0.023
						l0.01-0.05l0.101,0.012c0.022,0.002,0.045,0.005,0.073,0.008c0.049,0.006,0.105,0.013,0.168,0.021
						c0.05,0.007,0.102,0.015,0.159,0.023l0.044,0.005c0.044,0.006,0.089,0.013,0.135,0.02c0.075,0.013,0.153,0.023,0.235,0.034
						c0.051,0.008,0.101,0.015,0.152,0.022c0.051,0.007,0.105,0.015,0.155,0.022l0.042,0.007l0.189,0.03
						c0.085,0.011,0.164,0.024,0.236,0.036c0.036,0.006,0.069,0.012,0.103,0.017c0.056,0.008,0.107,0.019,0.152,0.026
						c0.033,0.006,0.061,0.012,0.086,0.015l0.101,0.018l-0.008,0.051l-0.01-0.001c0,0-0.034-0.002-0.091-0.005l-0.031-0.002
						c-0.057-0.004-0.128-0.01-0.213-0.019c-0.035-0.004-0.074-0.008-0.114-0.012c-0.072-0.007-0.146-0.014-0.227-0.024
						l-0.189-0.025C494.639,587.816,494.478,587.792,494.478,587.792 M486.116,590.008l-0.006-0.03l0.123-0.053l-0.066-0.117
						l0.024-0.021l0.249,0.192l-0.01,0.028H486.116L486.116,590.008z M486.708,584.982l-0.443,0.196l0.43,0.225l-0.011,0.03
						l-0.649-0.18c-0.027-0.007-0.049-0.027-0.057-0.055c-0.016-0.044,0.009-0.092,0.053-0.107l0.009-0.002l0.631-0.203
						c0.106-0.033,0.211-0.07,0.315-0.106l0.317-0.108l0.01,0.029l-0.301,0.142C486.91,584.89,486.81,584.937,486.708,584.982
						 M486.996,590.008l-0.005-0.03l0.122-0.053l-0.065-0.117l0.023-0.021l0.249,0.192l-0.01,0.028H486.996L486.996,590.008z"/>
				</g>
			</g>
		</g>
		<path id="path16871" style="fill:#110F0D;" d="M-112.257,414.445h-1.635c-3.497,0-4.758-1.595-6.096-4.941l-1.264-3.16h-0.374
			v8.472h23.044v-8.472h-0.371l-1.261,3.16c-1.338,3.346-2.567,4.941-6.096,4.941h-1.637v-21.447c0-1.674,0.522-3.272,3.087-3.68
			l0.927-0.148v-0.374h-12.341v0.374l0.933,0.148c2.559,0.408,3.084,2.006,3.084,3.68V414.445z M-90.66,414.816v-11.188
			c0.705,1.189,2.821,3.497,5.76,3.497c2.898,0,5.945-1.6,5.945-6.655v-9.034c0-0.964,0.374-1.745,1.603-2.079l0.705-0.185v-0.374
			h-8.701v0.374l0.71,0.185c1.221,0.334,1.598,1.115,1.598,2.079v8.664c0,3.418-1.974,4.647-3.905,4.647
			c-1.335,0-2.676-0.708-3.714-1.526v-11.784c0-0.964,0.371-1.745,1.597-2.079l0.705-0.185v-0.374h-8.698v0.374l0.708,0.185
			c1.226,0.334,1.597,1.115,1.597,2.079v20.745c0,0.964-0.371,1.743-1.597,2.077l-0.708,0.188v0.371H-90.66L-90.66,414.816z
			 M-66.909,407.125c4.681,0,7.323-3.126,7.323-6.806v-0.183h-11.71c-0.037-0.411-0.037-0.856-0.037-1.007
			c0-4.792,2.565-8.25,6.615-8.25c2.602,0,4.424,1.712,5.095,3.197l0.331-0.151c-0.294-1.598-2.713-5.682-7.617-5.682
			c-5.283,0-8.475,3.974-8.475,9.511C-75.384,402.663-72.191,407.125-66.909,407.125 M-71.296,400.544h7.545v1.187
			c0,2.49-0.705,4.98-3.198,4.98C-69.624,406.711-70.851,404.261-71.296,400.544"/>
		<path id="path16873" style="fill:#110F0D;" d="M-15.394,391.953c0-1.739,0.541-3.245,3.204-3.784l0.965-0.195v-0.194h-12.82v0.194
			l0.965,0.195c2.666,0.539,3.207,2.045,3.207,3.784v18.651c0,1.739-0.541,3.281-3.207,3.823l-0.965,0.194v0.191h12.82v-0.191
			l-0.965-0.194c-2.663-0.542-3.204-2.083-3.204-3.823V391.953z M15.65,409.176v-21.972h-0.267l-19.656,23.167l0.117-14.286
			c0.039-6.489,2.083-7.339,4.438-7.957l0.618-0.154v-0.194H-9.565v0.194l0.618,0.154c2.318,0.58,4.443,1.507,4.443,7.957v14.48
			l-0.465,0.5c-2.048,2.242-3.36,3.166-5.484,3.554v0.192h9.386c0.965-1.739,2.355-3.437,5.444-7.104l11.043-13.053l-0.117,13.904
			c-0.036,4.631-1.737,5.597-4.132,5.944l-0.889,0.118v0.192h24.292c10.04,0,15.175-6.332,15.175-13.398
			c0-7.068-5.135-13.633-15.175-13.633H21.059v0.194l0.924,0.154c2.743,0.465,3.246,2.048,3.246,3.825v17.223
			c0,4.132-2.124,5.444-4.788,5.444C17.774,414.62,15.65,413.308,15.65,409.176 M33.763,387.975c7.183,0,10.967,5.097,10.967,13.321
			c0,8.228-4.132,13.324-11.315,13.324h-3.708v-22.632c0-2.236,0.504-4.014,3.208-4.014H33.763z M64.076,387.975
			c4.325,0,6.604,1.236,8.458,4.402l1.813,3.049h0.193v-7.645H50.676v0.194l0.965,0.154c2.663,0.426,3.205,2.086,3.205,3.825v18.765
			c0,1.815-0.542,3.166-3.205,3.708l-0.965,0.194v0.191h22.823v-7.645h-0.194l-1.816,3.282c-1.815,3.322-4.322,4.172-8.998,4.172
			h-3.166v-12.782l1.931,0.038c4.134,0.076,5.523,0.271,6.835,4.44l0.426,1.354h0.192v-11.856h-0.192l-0.426,1.313
			c-1.351,4.208-2.664,4.363-6.835,4.439l-1.931,0.039v-9.731c0-2.315,0.849-3.9,3.593-3.9L64.076,387.975L64.076,387.975z
			 M89.368,414.812c6.062,0,10.312-3.322,10.312-8.072c0-4.788-4.249-8.107-10.312-8.107h-1.659v0.229h0.077
			c4.401,0,6.988,3.052,6.988,7.878c0,4.829-2.587,7.88-6.988,7.88h-1.389v-22.281c0-2.898,0.733-3.551,3.899-4.21l0.733-0.154
			v-0.194H77.707v0.194l0.965,0.195c2.664,0.539,3.205,2.045,3.205,3.784v18.689c0,1.735-0.541,3.242-3.205,3.784l-0.965,0.194
			v0.191L89.368,414.812L89.368,414.812z M114.16,387.975c4.325,0,6.603,1.236,8.457,4.402l1.816,3.049h0.191v-7.645h-23.865v0.194
			l0.966,0.154c2.667,0.426,3.207,2.086,3.207,3.825v18.765c0,1.815-0.541,3.166-3.207,3.708l-0.966,0.194v0.191h22.823v-7.645
			h-0.194l-1.815,3.282c-1.813,3.322-4.323,4.172-8.996,4.172h-3.166v-12.782l1.931,0.038c4.131,0.076,5.52,0.271,6.835,4.44
			l0.423,1.354h0.195v-11.856H118.6l-0.423,1.313c-1.354,4.208-2.666,4.363-6.835,4.439l-1.931,0.039v-9.731
			c0-2.315,0.847-3.9,3.59-3.9L114.16,387.975L114.16,387.975z M152.697,409.176v-21.972h-0.268l-19.657,23.167l0.118-14.286
			c0.036-6.489,2.084-7.339,4.44-7.957l0.618-0.154v-0.194h-10.467v0.194l0.618,0.154c2.319,0.58,4.44,1.507,4.44,7.957v14.48
			l-0.462,0.5c-2.048,2.242-3.36,3.166-5.485,3.554v0.192h9.384c0.966-1.739,2.359-3.437,5.444-7.104l11.047-13.053l-0.117,13.904
			c-0.038,4.631-1.736,5.597-4.132,5.944l-0.889,0.118v0.192h24.291c10.037,0,15.175-6.332,15.175-13.398
			c0-7.068-5.138-13.633-15.175-13.633h-13.514v0.194l0.926,0.154c2.742,0.465,3.242,2.048,3.242,3.825v17.223
			c0,4.132-2.124,5.444-4.787,5.444C154.82,414.62,152.697,413.308,152.697,409.176 M170.808,387.975
			c7.183,0,10.967,5.097,10.967,13.321c0,8.228-4.132,13.324-11.314,13.324h-3.708v-22.632c0-2.236,0.503-4.014,3.204-4.014H170.808
			L170.808,387.975z M201.123,387.975c4.323,0,6.604,1.236,8.454,4.402l1.819,3.049h0.192v-7.645h-23.865v0.194l0.966,0.154
			c2.666,0.426,3.205,2.086,3.205,3.825v18.765c0,1.815-0.539,3.166-3.205,3.708l-0.966,0.194v0.191h22.821v-7.645h-0.192
			l-1.816,3.282c-1.815,3.322-4.325,4.172-8.995,4.172h-3.167v-12.782l1.931,0.038c4.131,0.076,5.52,0.271,6.832,4.44l0.427,1.354
			h0.192v-11.856h-0.192l-0.427,1.313c-1.349,4.208-2.663,4.363-6.832,4.439l-1.931,0.039v-9.731c0-2.315,0.847-3.9,3.59-3.9
			L201.123,387.975L201.123,387.975z M239.35,407.785c-0.038,4.982-1.74,6.371-4.131,6.717l-0.889,0.118v0.192h10.387v-0.192
			l-0.888-0.118c-2.392-0.346-4.132-1.735-4.132-6.717v-20.581h-0.269l-19.655,23.167l0.116-14.286
			c0.037-6.489,2.086-7.339,4.439-7.957l0.618-0.154v-0.194h-10.465v0.194l0.618,0.154c2.316,0.58,4.44,1.507,4.44,7.957v14.48
			l-0.465,0.5c-2.046,2.242-3.358,3.166-5.482,3.554v0.192h9.385c0.964-1.739,2.357-3.437,5.447-7.104l11.041-13.053L239.35,407.785
			L239.35,407.785z M255.917,414.62h-1.701c-3.628,0-5.134-1.853-6.524-5.328l-1.315-3.284h-0.191v8.804h23.94v-8.804h-0.195
			l-1.311,3.284c-1.39,3.475-2.858,5.328-6.525,5.328h-1.701v-22.667c0-1.739,0.542-3.399,3.205-3.825l0.966-0.154v-0.194h-12.821
			v0.194l0.966,0.154c2.666,0.426,3.207,2.086,3.207,3.825V414.62z"/>
	</g>
</g>
</svg>
